<?xml version="1.0" standalone="no"?>
<!DOCTYPE svg PUBLIC "-//W3C//DTD SVG 1.1//EN" "http://www.w3.org/Graphics/SVG/1.1/DTD/svg11.dtd">
<svg xmlns="http://www.w3.org/2000/svg">
<metadata>Copyright (C) 2020 by original authors @ fontello.com</metadata>
<defs>
<font id="fly" horiz-adv-x="1000" >
<font-face font-family="fly" font-weight="400" font-stretch="normal" units-per-em="1000" ascent="850" descent="-150" />
<missing-glyph horiz-adv-x="1000" />
<glyph glyph-name="twitter_filled" unicode="&#xe800;" d="M386-150c217 0 392 74 523 223 131 148 197 314 197 496l0 0 0 31c52 38 94 82 125 130-44-21-92-34-146-39 57 33 95 80 112 141-56-33-110-54-162-63-50 54-111 81-182 81-72 0-132-24-180-73-49-48-73-108-73-180 0-26 2-45 5-57-212 11-385 98-519 263-22-40-34-81-34-125 0-92 38-162 112-211-38 0-76 11-114 31l0 0 0-2c0-61 19-114 58-160 39-46 88-75 145-88-28-6-50-10-68-10-10 0-26 2-47 5 16-50 45-91 89-123 43-33 92-49 146-51-92-73-197-110-313-110-12 0-32 2-60 6 118-77 247-115 386-115z" horiz-adv-x="1231" />

<glyph glyph-name="linkedin_filled" unicode="&#xe801;" d="M129 617c81 0 131 52 130 117 0 66-49 116-129 116-78 0-130-50-130-116 0-65 50-117 128-117l1 0z m474-767l0 377c0 20 2 40 8 55 17 40 54 82 118 82 84 0 117-62 117-153l0-361 231 0 0 387c0 207-114 304-266 304-119 0-174-61-205-107l-3-5 0 96-231 0 0-1c1-9 3-100 0-674l231 0z m-358 0l0 675-232 0 0-675 232 0z" horiz-adv-x="1077" />

<glyph glyph-name="youtube_filled" unicode="&#xe802;" d="M654-150c174 0 326 3 457 10 53 0 98 21 134 62 37 40 55 90 55 149 5 94 8 187 8 279 0 92-3 185-8 279 0 59-18 109-55 149-36 41-81 62-134 62-124 7-269 10-434 10l0 0-46 0c-165 0-310-3-434-10-53 0-97-21-133-62-36-40-54-90-54-149-7-125-10-218-10-279 0-92 3-185 8-279 0-59 18-109 55-149 36-41 81-62 134-62 131-7 283-10 457-10z m-125 245l0 513 370-258-370-255z" horiz-adv-x="1308" />

<glyph glyph-name="pinterest_filled" unicode="&#xe803;" d="M166-150l9 3c98 138 95 165 139 346 24-47 86-72 135-72 208 0 301 207 301 394 0 199-168 329-352 329-200 0-398-137-398-359 0-78 31-193 114-219 3-1 7-2 10-2 20 0 31 55 31 71 0 19-47 58-47 136 0 161 120 275 275 275 133 0 231-77 231-220 0-106-41-306-176-306-49 0-90 36-90 88 0 76 51 149 51 227 0 48-26 86-76 86-66 0-107-77-107-138 0-33 4-70 18-101-27-119-82-296-82-419 0-38 6-75 9-113l5-6z" horiz-adv-x="750" />

<glyph glyph-name="facebook_filled" unicode="&#xe804;" d="M346-150l0 456 157 0 24 178-181 0 0 114c0 51 15 86 90 86l97 0 0 159c-16 2-74 7-140 7-140 0-236-83-236-235l0-131-157 0 0-178 157 0 0-456 189 0z" horiz-adv-x="533" />

<glyph glyph-name="instagram_filled" unicode="&#xe805;" d="M706-147c80 4 151 22 210 81 59 59 77 130 81 210 4 69 3 137 3 206 0 69 1 137-3 206-4 80-22 151-81 210-59 59-130 77-210 81-51 3-103 3-154 3l-52 0c-69 0-137 1-206-3-80-4-151-22-210-81-59-59-77-130-81-210-3-51-3-103-3-154l0-52c0-69-1-137 3-206 4-80 22-151 81-210 59-59 130-77 210-81 51-3 103-3 154-3l52 0c69 0 137-1 206 3z m-206 87c-73 0-229-6-295 20-23 9-40 20-57 38-18 17-29 34-38 57-26 66-20 222-20 295 0 73-6 229 20 295 9 23 20 40 38 57 17 18 34 29 57 38 62 24 202 21 279 20l16 0c73 0 229 6 295-20 23-9 40-20 57-38 18-17 29-34 38-57 26-66 20-222 20-295 0-73 6-229-20-295-9-23-20-40-38-57-17-18-34-29-57-38-66-26-222-20-295-20z m267 617c33 0 60 27 60 60 0 33-27 60-60 60-33 0-60-27-60-60 0-33 27-60 60-60z m-267-463c142 0 257 114 257 256 0 142-115 257-257 257-142 0-256-115-256-257 0-142 114-256 256-256z m0 89c-92 0-167 75-167 167 0 92 75 167 167 167 92 0 167-75 167-167 0-92-75-167-167-167z" horiz-adv-x="1000" />

<glyph glyph-name="star_filled" unicode="&#xe806;" d="M1083 463c0-12-8-23-17-31l-236-223 56-315c1-4 1-8 1-13 0-16-8-31-27-31-9 0-18 3-26 8l-292 148-293-148c-8-5-17-8-26-8-19 0-27 15-27 31 0 5 1 9 1 13l56 315-237 223c-7 8-16 19-16 31 0 18 20 26 37 29l326 46 147 286c6 12 17 26 32 26 15 0 26-14 32-26l146-286 327-46c16-3 36-11 36-29z" horiz-adv-x="1083" />

<glyph glyph-name="linkedin" unicode="&#xe807;" d="M263-80c-7-16-29-18-46-18-56 0-111 0-167 0-15 0-34 1-42 15-5 7-5 17-5 25 0 191 1 382 1 573 0 6 0 12 3 17 6 11 21 12 33 12 63 0 126 0 190 0 9 0 20 0 27-7 8-7 9-19 9-30 0-189 0-378 0-567 0-7 0-14-3-20m-67 44c2 0 4 0 6 1 2 2 2 5 2 7 0 168 0 336 0 504 0 2 0 4-2 5-1 1-3 1-5 1-40 0-81 1-121 1-3 0-5 0-8-2-5-2-6-10-6-16 0-162 1-323 1-485 0-7 2-16 9-16 42 0 83 0 124 0z m520-17c0 87 0 174 0 261 0 18 0 37-8 54-10 20-32 33-54 32-22-1-43-16-51-37-4-11-4-24-4-36 1-89 1-177 1-266 0-14 0-30-10-40-11-13-29-13-45-13-60 0-119 0-179 0-9 0-18 0-26 5-17 9-19 32-19 51 0 180 1 359 1 539 0 16 2 35 15 43 8 4 16 4 25 4 67 0 135 0 203 0 19 0 36-17 36-36 44 23 95 38 145 38 51 0 102-14 143-44 63-46 97-123 107-200 4-36 4-72 4-108 0-83 0-166 0-249 0-12-1-26-10-35-8-7-21-8-32-8-67 0-134 0-201 0-10 0-21 0-30 7-11 9-11 24-11 38m220 19c2 1 2 3 2 6 0 72 0 144 0 216 0 44 0 89-8 132-9 42-26 82-55 112-35 35-85 53-135 52-49-1-97-19-137-48-15-10-34-23-50-15-18 9-17 34-15 53 1 6-7 8-14 8-42 0-85 1-128 1-2 0-5 0-7-2-3-2-4-7-4-11 1-165 1-331 1-496 0-3 0-7 3-9 1-1 4-1 6-1 44 0 87 0 130 0 4 0 7 0 10 2 3 3 3 7 3 11-1 73-1 147-2 220 0 27 0 55 9 80 17 48 68 82 118 79 51-2 98-42 109-92 4-17 4-35 4-52-1-79-1-159-1-238 0-8 10-10 18-10 46 0 91 0 137 0 2 0 5 0 6 2z m-670 718c-6-25-20-48-38-66-39-37-101-47-149-25-49 22-82 76-79 129 3 54 40 104 91 121 51 18 111 1 146-39 14-17 25-37 29-59 5-20 5-41 0-61m-145-40c19-4 40 1 56 12 16 11 27 29 30 48 5 31-12 63-39 77-28 14-64 8-85-14-22-22-27-58-13-85 10-20 29-34 51-38z" horiz-adv-x="1000" />

<glyph glyph-name="pinterest" unicode="&#xe808;" d="M148 101c-22-4-42 12-57 29-108 122-118 315-39 459 78 144 235 236 397 257 184 23 385-49 484-205 92-146 83-340 11-498-43-96-111-185-205-235-94-50-215-54-302 7-25-104-70-204-134-290-17-25-45-51-73-40-22 8-30 35-34 57-23 130 6 262 34 391 12 57 25 114 37 171 10 45 20 90 30 135 16 73 39 155 106 187 37 18 82 15 120 1 21-7 40-18 54-34 34-39 29-98 12-146-18-48-47-93-56-143-4-23-1-52 20-62 12-5 27-2 39 3 41 18 73 54 92 94 19 41 27 86 32 130 6 57 7 119-25 168-26 40-72 65-119 77-78 20-166 4-231-45-64-49-103-132-94-213 8-74-26-145-59-212-9-18-21-38-40-43m119-307c-2-24-3-49 6-71 51 73 76 162 94 249 5 23 13 51 36 57 27 9 50-19 71-38 56-51 145-55 214-23 69 32 120 93 159 159 42 74 71 157 76 242 5 85-16 173-65 242-45 66-114 113-190 138-76 25-158 28-237 14-67-12-133-36-188-76-77-54-133-136-156-227-21-83-12-177 40-246 25 28 35 67 39 104 4 38 1 76 6 113 13 93 74 177 155 224 81 47 182 57 273 34 31-8 62-20 89-38 48-33 81-86 98-142 16-56 15-116 6-174-9-57-26-112-56-161-29-49-73-93-129-107-56-15-123 8-147 60-23 50-2 108 18 160 14 35 29 70 43 105 12 31-20 68-54 68-34-1-63-27-77-58-14-31-17-65-21-99-22-172-89-336-103-509z" horiz-adv-x="1000" />

<glyph glyph-name="copy" unicode="&#xe809;" d="M705 850h-546c-50 0-91-41-91-91v-636h91v636h546v91z m136-182h-500c-50 0-91-41-91-91v-636c0-50 41-91 91-91h500c50 0 91 41 91 91v636c0 50-41 91-91 91z m0-727h-500v636h500v-636z" horiz-adv-x="1000" />

<glyph glyph-name="whatsapp-1" unicode="&#xe80a;" d="M500 850h0c-276 0-500-224-500-500 0-109 35-211 95-293l-62-186 192 62c79-53 173-83 275-83 276 0 500 224 500 500s-224 500-500 500z m291-706c-12-34-60-62-98-71-26-5-60-10-175 38-147 61-242 210-249 220-7 10-59 79-59 151s36 106 51 121c12 13 32 18 51 18 6 0 12 0 17 0 14-1 22-2 31-25 12-29 42-101 45-108 4-7 7-17 2-27-4-10-8-15-16-23-7-9-14-15-22-24-6-8-14-17-5-31 8-15 37-63 81-101 55-50 101-66 117-72 12-5 26-4 35 5 11 12 25 32 39 52 10 14 23 16 36 11 14-5 85-40 100-48 14-7 24-10 28-17 3-6 3-35-9-69z" horiz-adv-x="1000" />

<glyph glyph-name="chat_1" unicode="&#xe80b;" d="M265 355c-10 6-16 17-15 28 1 11 8 21 18 25 7 4 16 4 25 4 157 0 315 0 473 0 12 0 24 0 34-7 14-10 16-33 4-45-11-10-27-11-42-11-155 0-311 1-466 1-11 0-22 0-31 5z m468-126c-8-4-17-4-26-4-117 0-235 0-352 0-9 0-17 0-25 4-9 4-16 13-17 22-2 10 2 20 10 27 10 9 26 10 40 10 112 0 225 0 337 0 14 0 29-1 39-9 8-7 12-17 11-27-2-10-8-19-17-23z m-3 306c10-4 18-13 19-23 2-10-2-21-10-28-10-8-25-9-38-9-112 0-223 0-335 0-17 0-37 1-48 15-10 13-5 36 10 43 8 4 17 4 26 4 119 0 237 0 356 0 7 0 14 0 20-2z m-723-676c-13 14-5 36 3 52 31 65 63 130 94 195 10 20 19 43 10 62-82 159-61 365 49 505 111 140 306 207 479 165 174-43 316-192 350-367 34-175-42-367-188-471-145-104-351-114-506-26-78-38-157-75-236-113-18-9-42-17-55-2m265 171c9 4 19 8 29 8 11 0 22-6 32-12 135-76 315-65 440 27 125 92 189 260 157 412-32 152-158 280-309 314-152 34-320-28-414-151-94-124-108-303-34-440 6-11 13-23 14-36 0-13-5-25-11-37-26-55-52-111-78-167 58 27 116 55 174 82z" horiz-adv-x="1000" />

<glyph glyph-name="cycling" unicode="&#xe80c;" d="M592 40c-1-16-5-33-12-48-16-30-50-50-84-49-34 1-67 24-80 56-17 42 0 94-22 135-16 28-48 43-76 59-29 16-59 38-64 70-2 14-18 21-32 23-40 6-81 2-118-14-12-4-24-11-36-12-13-2-28 2-34 14-7 12-2 28 8 38 10 10 23 14 37 18 55 18 116 28 172 11 13-4 24 10 30 23 21 39 42 77 63 116 29 54 65 114 126 125-40 35-57 93-42 144 14 51 60 91 112 99 52 9 108-15 138-59 10-16 22-36 41-35 16 1 31-14 31-30-1-16-16-29-32-27-12 1-18-15-22-27-17-64-88-109-155-98 12-34 27-71 59-87 26-12 56-7 83-15 36-11 64-45 66-82 3-37-19-75-52-91-22-10-47-12-71-10-42 4-82 17-118 38-7 4-14 9-22 9-7 0-16-6-15-13 86-64 134-175 121-281m80 314c10 6 16 17 16 28-1 12-8 22-18 27-8 4-18 4-27 4-55 3-112 31-135 82-4 8-7 18-12 26-6 8-13 16-23 17-18 3-32-16-41-32-37-65-74-130-111-195-5-8-10-17-9-26 1-14 13-24 25-31 31-20 66-35 91-63 36-41 44-100 42-155-1-13 9-26 22-30 14-3 28 5 34 17 3 6 3 12 4 18 4 41 0 84-14 123-14 40-39 75-74 98-10 7-20 12-29 20-9 8-15 20-14 31 0 8 4 15 8 22 10 18 20 35 30 53 7 12 15 25 29 28 16 4 31-9 44-19 38-30 86-48 135-48 9 0 19 1 27 5m-184 338c-2-2-1-6 0-9 11-29 42-51 73-51 32-1 63 20 75 49 2 5 3 10-1 13-2 2-5 2-7 2-44 0-87 0-130 0-4 0-8-1-10-4m134 68c-18 22-49 33-76 27-15-4-29-12-39-22-2-2-4-5-3-7 2-2 4-2 6-2 33-1 65-1 97-1 5 0 12 1 15 5z m-288-685c18-54 7-117-29-161-35-45-94-69-151-64-57 6-109 42-135 93-27 50-25 114 3 164 29 49 83 83 140 86 22 1 45-3 66-10 49-17 89-58 106-108m-262-8c-8-19-10-40-7-60 7-38 36-73 73-85 27-9 58-7 84 6 26 12 46 36 55 63 12 36 4 77-21 106-24 28-63 43-100 37-37-6-70-32-84-67z m859 92c39-29 65-76 69-125 4-62-27-125-80-158-53-33-123-35-177-4-54 31-88 94-86 156 2 62 41 121 97 148 56 27 127 20 177-17m6-156c4 24-1 50-13 71-19 36-61 59-102 56-41-2-79-29-95-67-15-38-7-85 20-115 27-31 73-44 112-32 39 11 71 46 78 87z m-131 286c-11 3-21 12-23 24-2 11 3 24 12 30 11 8 26 8 39 6 37-3 73-12 106-27 8-3 17-7 22-14 8-9 9-22 4-33-5-10-17-17-28-17-9 1-17 5-25 8-29 13-61 21-93 22-5 0-9 0-14 1z" horiz-adv-x="1000" />

<glyph glyph-name="sketing" unicode="&#xe80d;" d="M880-138c-12-27-36-48-64-57-19-5-38-5-58-5-95 0-190 0-285 0-9 0-19 0-27 4-22 11-22 47 0 57 8 5 18 5 27 5 28-1 56-1 83-1 5 62 6 124 3 187-2 31-6 64-25 88-14 17-42 26-56 9-37-45-79-90-135-107-33-11-69-11-104-11-50 1-100 1-150 2-19 1-31-25-24-42 7-18 27-28 46-32 20-4 24-36 9-50-15-14-40-12-59-4-24 11-43 31-52 55-9 22-9 48-9 72 0 90 0 179 0 268 0 13 0 25 5 37 4 11 15 21 27 22 13 0 24-10 29-22 5-12 5-26 5-39 0-21-1-43-1-65 0-6 8-8 14-8 56 1 111 1 167 1 13 0 25 0 37 5 12 5 21 15 29 25 40 45 80 90 120 134-47 1-94 1-140 1-22 0-44 0-64 8-34 12-60 46-63 82-3 37 17 74 49 92 28 16 62 16 95 16 106-1 212-1 318-2 24 0 49 0 71-9 32-14 55-48 56-83 1-37-22-72-47-99-26-28-56-52-76-83 62-44 106-114 118-188 6-33 5-67 5-100 0-46-1-92-1-138 0-19 25-29 43-21 17 8 26 27 30 46 5 20 36 23 49 8 14-15 13-39 5-58m-193 144c5 47 4 96-11 141-15 45-43 87-84 112-10 6-21 12-30 20-9 8-16 19-15 32 2 11 9 19 17 28 33 36 66 71 99 107 9 10 18 19 22 31 5 12 4 27-5 36-9 9-24 9-36 9-121 1-242 1-363 1-13 0-27-1-38-8-16-12-16-40 0-52 11-7 25-8 38-8 69 1 138 1 207 1 16 0 33 0 44-12 7-7 10-18 7-27-2-10-9-17-15-24-56-61-112-123-168-184-15-18-33-36-55-43-13-4-26-3-38-3-19 0-38 0-57 0-2 1-5 0-7-2-2-1-2-4-2-7 0-17 0-35 0-52 0-2 0-5 1-6 2-2 4-2 7-2 48-1 100-2 143 21 44 24 72 69 107 105 8 8 17 15 27 17 9 1 18-2 26-6 41-18 79-46 99-86 20-42 18-90 18-136 0-4 0-8 3-11 2-1 5-2 8-2 14 0 27 0 41 0 2 0 5 1 6 2 3 2 3 5 4 8m-558 155c-3 2-6 2-10 2-14 0-29 0-44 0-2 0-4 0-6-1-3-2-3-7-3-10 0-18 0-36 0-53 0-4 5-5 8-5 15 0 31 0 46 0 3 0 7 0 9 2 3 2 3 6 3 9 0 15 0 31 0 46 0 3-1 7-3 10m499-230c-3-1-3-5-3-8 0-16 0-32 0-49 0-3 1-9 5-9 18 0 35 0 53 0 1 0 2 0 3 1 2 1 2 4 2 6 0 17 0 35 0 53 0 2 0 4-1 5-2 1-3 1-5 1-17 0-34 0-51 0-1 0-2 0-3 0z m83 734c-1 4-2 9-2 13-3 14-3 28-2 41 2 11 4 22 8 33 18 52 69 92 125 97 55 6 112-24 141-72 28-48 25-112-7-158-31-46-91-70-146-61-55 10-102 53-117 107m218 70c-12 29-42 49-74 50-31 1-62-18-76-46-13-29-9-65 12-89 20-24 55-35 85-26 31 9 56 38 59 71 1 4 1 8 1 12-1 10-3 19-7 28z" horiz-adv-x="1000" />

<glyph glyph-name="climbing" unicode="&#xe80e;" d="M13 13c56 159 112 318 168 477 8 24 17 48 34 66 34 36 97 36 131 1 27-28 34-72 63-99 24-21 58-28 90-28 13 0 28 0 41-4 13-5 24-18 22-32-1-10-10-19-20-23-10-4-22-4-32-4-49 2-101 10-138 41-24 20-39 48-52 76-5 9-9 19-16 27-8 8-18 14-29 12-16-3-24-21-29-36-60-168-119-337-179-505-3-8-6-16-5-25 1-22 33-36 50-22 9 8 13 19 17 29 18 52 36 104 54 156 6 17 15 37 33 40 6 1 12-1 18-2 45-14 84-49 102-92 7-17 11-37 3-54-7-16-30-26-45-15-14 11-12 33-17 50-6 19-21 34-40 40-16-45-32-90-48-135-6-17-12-33-22-48-23-32-69-46-106-32-38 14-64 54-61 93 2 17 7 32 13 48z m632-23c-20-5-37-19-54-33-26-22-53-44-79-66-10-8-20-16-32-20-13-6-28-6-43-6-46 0-92 1-138 1-19 0-43 3-49 22-4 14 6 29 19 35 13 6 28 6 42 6 37-1 74-2 110-3 17 0 35 0 48 11 39 31 78 63 117 94 15 13 34 26 53 21 7-2 10 10 9 17-27 151-54 301-81 451-2 14-5 29-1 42 4 14 18 26 32 24 18-3 25-25 28-43 29-161 57-322 86-483 1-7 9-9 15-6 6 3 9 9 12 15 33 66 66 133 99 200 7 12 14 26 27 31 6 2 13 2 20 2 20 1 40 1 60 1 11 0 23 0 34-4 10-4 20-13 21-25 1-12-9-24-20-29-12-5-25-5-38-5-13 0-26 0-39 0-8 0-14-9-18-17-34-69-68-137-102-206-11-22-40-29-64-28-25 1-50 7-74 1z m-380 228c-12 6-26 13-31 26-3 11 1 22 4 32 8 21 15 42 22 63 6 16 14 35 31 37 16 3 29-10 41-21 25-22 56-38 89-44 13-2 28-3 42-4 19-1 38-2 57-3 9-1 19-2 27-7 9-5 14-14 14-24 0-10-5-20-13-25-10-6-22-6-34-6-64 2-132 5-187 40-5 4-12 8-17 5-7-3-8-12-4-18 3-6 10-10 16-13 41-23 76-54 102-93 26-38 42-83 43-130 0-11-1-22-7-31-9-10-25-13-37-6-12 6-19 20-18 33 0 42-17 82-43 114-26 32-60 56-97 75z m-158 361c8 6 20 7 29 3 10-4 17-13 18-23 1-11-3-21-7-31-28-65-56-131-85-197-2-5-4-11-8-16-8-9-23-13-34-8-12 4-20 16-20 29 0 8 3 15 6 22 28 65 56 130 84 195 4 10 9 19 17 26z m263 266c4 1 7 2 11 3 6 1 12 2 18 2 56 2 111-31 134-81 23-51 13-114-25-155-38-40-101-55-152-35-52 20-89 73-90 128-2 55 33 110 84 132 7 2 13 5 20 6m72-66c-5 2-9 4-14 6-18 5-38 4-55-4-9-4-17-10-24-17-22-24-28-62-13-91 16-28 50-46 82-40 33 5 60 32 65 64 5 33-12 67-41 82z" horiz-adv-x="1000" />

<glyph glyph-name="fishing" unicode="&#xe80f;" d="M753 24c4-23 22-42 44-47 22-6 47 2 61 20 18 21 19 52 18 80 0 34 0 67 0 100-1 10-2 23-11 28-30 14-50 46-52 79-1 33 17 67 46 83 5 3 11 6 14 11 3 5 3 12 3 17 0 131-1 261-1 392-1 15 0 31 7 44 7 14 24 23 38 17 16-7 18-28 18-46 0-133 0-266 0-399 0-13 1-29 13-35 29-15 49-47 49-80 0-34-19-66-49-82-14-7-15-27-14-43 1-34 2-68 1-102 0-22-1-43-8-64-18-57-84-93-143-81-58 13-103 71-102 131 0 14 2 28 10 38 8 11 23 17 35 12 13-5 19-19 21-33 1-13-1-27 2-40m183 272c0 2-1 3-1 4-4 10-14 17-24 19-10 1-21-3-28-11-2-2-3-4-4-6-5-10-5-22 1-31 2-3 4-5 6-7 5-4 10-7 15-8 9-1 18 2 25 8 9 7 15 21 10 32z m-405 162c8 0 16-2 23-5 3-2 6-4 9-7 14-14 18-38 8-56-10-17-33-27-52-21-21 6-36 28-33 50 3 22 24 39 45 39z m-443-182c-32-15-75 5-85 38-3 11-3 23-3 35 0 43 0 85 0 128 0 12 0 23 4 35 9 30 44 49 74 40 20-5 36-21 50-35 16-17 33-34 49-50 2-3 4-5 7-6 5-1 10 3 14 6 49 39 100 76 157 101 57 25 121 37 182 28 62-10 121-44 153-97 33-53 35-126 0-177-14-19-33-35-52-49-18-13-37-24-58-32-50-20-107-18-160-5-86 21-163 71-228 130-4 3-9 0-12-3-19-20-39-40-59-60-10-10-20-21-33-27m250 59c49-28 104-48 161-46 56 1 114 28 143 76 4 8 8 15 11 24 8 27-1 58-18 81-17 24-42 40-68 53-7 3-15 6-23 9-8 2-15 3-23 4-52 5-104-7-151-29-47-21-89-52-128-85-3-3-6-5-6-9 0-3 3-6 5-8 30-27 62-50 97-70m-200 84c-24 24-49 49-74 73-2-5-2-11-2-17 0-45 0-89 0-134 0-3 2-7 4-5 24 24 48 48 73 72 1 1 2 3 2 4 1 3-1 5-3 7z" horiz-adv-x="1000" />

<glyph glyph-name="tent" unicode="&#xe810;" d="M595 271c-11-16-34-17-53-17-28 0-56 0-84 0-18 0-37 1-49 14-12 14-7 38 9 47 8 5 19 5 29 5 34 0 68 0 101 0 15 0 31 0 42-10 11-10 13-27 5-39z m-241 577c21 9 41-13 53-32 31-48 62-97 93-145 32 48 63 97 94 146 12 18 31 39 52 31 13-5 19-21 17-35-2-14-9-27-17-39-30-46-61-93-91-140-5-7-10-15-10-24-1-11 5-20 11-29 137-216 275-433 412-650 13-20 26-41 31-65 4-23-3-50-22-64-16-10-36-11-54-11-278 0-555 0-833 0-20 0-40 0-57 9-18 10-31 28-33 48-2 27 13 52 27 74 139 220 279 439 418 659 8 12 16 29 8 41-33 51-65 102-98 153-8 12-15 24-17 38-2 14 4 29 16 35m69-758c11 18 22 36 37 49 16 13 38 22 58 16 23-6 38-29 50-49 48-80 96-160 144-239 6-10 19-11 31-11 63 1 127 2 190 2-140 227-282 453-426 677-2 3-4 6-7 6-3 0-5-3-7-6-142-226-285-451-428-677 67-1 133-1 200-2 5 0 11 0 16 3 6 3 9 8 13 14 43 72 86 145 129 217m208-233c1 0 3 0 4 1 3 2 1 6-1 9-42 72-85 143-127 214-2 2-4 5-7 5-2-1-4-3-5-4-42-71-85-142-128-213-2-4-4-9 0-11 1-1 3-1 4-1 87 0 173 0 260 0z" horiz-adv-x="1000" />

<glyph glyph-name="music" unicode="&#xe811;" d="M663 277c11 12 34 12 44-1 6-8 8-19 9-28 13-118-37-240-128-316-91-75-221-101-334-67-113 35-206 129-240 242-33 113-6 243 70 333 76 91 198 140 316 126 17-2 38-8 41-25 3-14-9-28-23-33-14-5-29-3-44-2-119 6-239-68-287-177-49-110-22-248 63-332 85-84 224-109 333-59 109 50 180 172 172 291-1 16-3 35 8 48z m24 415c0-84 0-169 0-253 0-12 0-25-2-37-8-45-46-82-91-89-45-7-92 18-113 58-20 40-13 93 19 126 31 32 83 42 124 24 2 46 2 93 1 139-1 37-1 77 22 105 19 22 49 31 77 39 46 12 92 25 138 38 14 4 29 8 44 8 39 1 77-27 89-64 5-17 5-36 5-54 0-65 0-130 0-195 0-15 0-31-3-46-10-44-49-79-94-84-44-6-90 20-110 60-20 40-11 93 20 125 32 32 83 41 124 23 2 42 2 83 1 124 0 19-3 42-20 48-9 3-18 1-28-2-58-16-116-32-174-48-7-2-13-4-18-8-10-8-11-24-11-37m159-165c-4-13-1-29 8-40 8-11 22-18 36-19 2 0 5 0 7 1 3 1 6 1 9 2 20 7 34 29 31 50-3 21-22 39-43 41-21 1-43-14-48-35m-258-60c-22 4-46-9-54-30-8-22 4-50 26-59 22-9 50 2 60 23 6 13 6 28 0 41-6 12-19 22-32 25z m-402 358c1-3 1-7 1-11 0-56 0-111 0-167 0-10 0-21-2-31-6-37-37-69-74-76-37-7-77 10-97 42-20 32-18 76 4 106 23 30 65 44 101 33 4-1 6 5 6 9 0 23-1 46-1 69 0 14 0 29 8 39 7 9 20 14 31 11 12-2 21-12 23-24m-94-162c-6 0-13-3-18-7-3-2-6-5-8-8-6-9-6-21-1-31 4-8 12-14 21-16 9-2 18 0 25 5 7 5 12 12 13 21 2 8-1 17-6 23-1 2-3 4-5 5-6 5-13 9-21 8z m131-421c10 45 46 84 90 100 44 15 96 7 133-22 36-29 57-78 53-124-5-45-33-88-72-110-37-20-82-22-121-7-31 13-57 37-72 66-15 30-19 65-11 97m108-106c8-3 17-5 26-5 9 0 18 1 26 4 35 11 59 49 54 85-5 36-39 67-76 68-36 1-71-27-79-63-7-36 15-76 49-89z" horiz-adv-x="1000" />

<glyph glyph-name="rice_bowl" unicode="&#xe812;" d="M329-149c-21 0-45 0-62 13-23 16-30 48-23 75 6 28 23 51 40 74-158 53-275 209-284 375 0 13 0 27 6 38 6 12 20 20 32 16 11-4 23 3 29 12 7 9 10 21 14 31 18 52 64 93 118 105 24 6 53 8 67 29 43 60 114 100 187 105 74 5 150-25 200-80 52 60 103 121 155 181 13 15 33 31 51 23 12-7 16-23 13-36-4-14-13-24-22-35-51-59-102-117-153-176-11-12 2-33 17-36 16-2 32 6 45 14 57 32 113 65 170 97 12 7 24 14 38 15 13 1 29-6 32-20 5-18-14-34-31-44-40-24-81-47-121-71 40-21 72-59 85-103 5-16 29-7 45-11 19-5 24-30 23-50-6-167-124-325-283-379 17-23 34-47 41-75 6-28-2-61-26-76-16-10-37-11-56-11-115 0-231 0-347 0m605 530c-287 0-574 1-861 1-6 0-8-9-8-15 7-102 70-195 155-252 85-57 190-79 292-77 100 2 203 28 284 87 81 60 139 156 138 256m-685 157c-53-1-104-40-119-91 6-4 13-4 20-4 236 0 471 0 706 0 3 0 7 0 9 3 2 2 1 6 0 9-13 31-48 48-82 52-33 3-67-2-101 0-14 1-30 6-34 19-20 73-89 130-164 136-76 6-153-39-184-108-4-9-13-14-23-16-9-1-18 0-28 0m444-625c2 0 3 0 4 2 1 1 0 3 0 4-11 22-22 43-32 65-2 5-6 10-11 9-30-6-59-11-89-14-72-7-146-2-216 14-6 1-11-5-14-11-10-20-20-41-30-61 0-2-1-3-1-4 1-3 4-4 7-4 128 0 255 0 382 0z" horiz-adv-x="1000" />

<glyph glyph-name="road" unicode="&#xe813;" d="M49-144c-9-7-22-8-32-3-10 4-17 15-17 26 0 8 3 16 6 23 80 201 161 401 241 602 4 10 8 21 17 28 17 12 46-1 47-22 1-9-2-18-6-26-80-201-160-401-240-602-4-9-8-20-16-26z m535 692c-5 13-10 27-14 41-14 57-1 120 33 168 47 67 134 104 215 90 81-13 152-77 174-156 8-26 10-54 6-81-4-37-20-71-38-104-32-61-72-118-115-173-11-14-23-29-40-37-16-7-35-6-51 2-15 8-25 22-36 36-50 67-101 136-134 214m350 123c-12 46-46 86-90 104-43 19-96 17-137-6-42-23-72-66-80-113-1-7-2-15-1-22 0-26 10-50 20-73 36-74 84-142 136-207 46 55 86 115 121 178 20 37 40 79 35 121-1 6-2 12-4 18z m-434-232c0-15 0-30 0-45 0-8 0-17-3-25-4-10-14-17-25-18-10-2-21 3-27 12-7 9-7 21-8 32 0 14 0 27 1 41 0 7 0 14 3 20 5 12 18 20 31 18 13-1 24-11 27-24 0-3 1-7 1-11z m-3-570c-3-10-13-18-24-19-11-2-23 4-29 13-7 10-7 23-7 35 1 12 1 24 1 36 0 6 0 11 1 17 3 10 12 19 23 21 16 4 34-8 37-24 1-4 1-7 1-11 0-16 0-31 0-47 0-7 0-14-3-21z m3 319c0-15 0-30 0-44 0-9 0-18-3-26-5-10-15-17-25-18-11-1-22 5-28 14-7 10-7 23-7 35 1 12 1 24 1 35 0 7 0 13 2 19 4 12 17 22 31 21 13-1 25-12 28-25 1-4 1-7 1-11z m249 412c-10 10-14 25-12 39 0 3 1 7 3 10 8 20 33 32 54 27 6-2 11-4 16-7 3-3 5-5 7-8 15-18 13-48-4-64-18-15-48-14-64 3z m4-400c2 11 10 20 21 23 10 3 22 0 29-8 5-5 8-12 11-19 40-99 80-199 119-298 2-5 4-10 5-15 1-12-6-25-17-30-11-6-25-4-34 4-6 6-10 15-13 23-38 96-77 192-115 287-4 11-9 22-6 33z" horiz-adv-x="1000" />

<glyph glyph-name="swimming" unicode="&#xe814;" d="M940 167c12-1 24-2 36-6 11-4 22-13 24-26 1-13-9-26-22-31-13-5-27-3-40-1-47 8-91 30-126 61-42-39-99-62-157-62-57 0-114 23-156 62-41-39-98-62-155-62-57 0-114 23-155 62-35-30-78-51-123-60-14-3-30-5-44 1-14 5-25 20-21 35 6 21 35 24 57 27 34 4 66 21 89 46 12 13 25 30 43 29 15-1 26-15 37-27 29-32 72-52 115-52 44 0 87 18 117 50 13 14 28 32 47 28 13-2 22-14 31-24 30-34 75-54 120-54 45 0 90 21 120 55 9 10 17 21 30 24 19 3 34-16 47-30 23-24 53-40 86-45z m-714 236c29-33 73-52 117-52 44-1 88 18 118 50 13 15 29 33 48 28 10-3 17-12 24-21 30-35 75-57 122-57 46-1 93 20 123 55 9 11 18 23 32 24 16 2 28-14 40-26 23-26 55-44 90-49 12-2 24-2 36-6 12-5 22-14 24-26 2-14-10-27-23-32-14-4-29-2-42 1-41 8-82 23-112 52-7 8-19 1-26-5-43-34-97-52-151-50-55 3-107 25-147 63-41-40-98-63-155-63-57 0-114 23-156 62-35-32-81-53-128-61-13-2-27-2-39 3-13 5-23 18-21 31 2 11 13 20 24 24 11 4 23 4 35 6 34 5 67 22 90 48 11 12 22 28 39 28 16 0 27-15 38-27z m79 51c-17 1-31 20-26 37 4 14 17 23 29 30 34 21 67 41 100 62 4 2 8 5 8 9 1 4-3 8-6 11-17 16-33 35-40 58-11 37 4 81 36 103 32 23 79 22 110-2 9-8 18-17 26-27 56-64 113-129 169-194 5-6 11-12 13-19 6-18-10-39-28-38-16 0-29 13-39 25-55 63-109 126-164 188-7 8-14 16-24 20-11 4-24 1-32-8-8-8-11-21-7-31 3-7 8-13 13-18 12-15 24-29 36-43 12-13 24-30 16-46-3-8-11-13-19-18-46-29-92-58-138-87-10-6-21-13-33-12z m616 344c10-12 18-26 23-40 6-18 8-37 7-55-1-14-3-27-7-40-2-5-4-10-6-15-21-43-66-73-114-77-48-4-97 19-125 57-28 39-34 93-15 137 19 44 62 77 109 84 48 6 98-14 128-51m-178-52c-6-11-9-25-9-38 1-26 15-51 38-65 30-18 71-12 96 12 24 25 29 66 11 96-18 30-57 44-90 34-20-6-37-21-46-39z" horiz-adv-x="1000" />

<glyph glyph-name="car_luggage" unicode="&#xe815;" d="M319 849c57 0 114 1 171 1 27 0 56 0 77-17 32-26 29-75 22-116-3-20 23-29 39-41 25-19 29-55 29-87 2-49 1-103-32-138 73-54 131-127 167-210 7-16 27-21 44-25 71-19 131-76 155-146 10-31 13-65 2-96-11-31-38-57-70-61-23-3-53 3-64-18-16-28-48-46-81-46-32 1-64 20-79 49-6 12-22 14-36 14-114 0-229-1-343-1-7 0-16-1-19-7-22-52-99-70-142-32-21 18-40 49-67 43-34-8-68 17-82 49-13 32-11 68-7 102 19 146 78 299 203 377-26 12-43 40-49 68-7 28-5 58-3 87 3 33 10 73 41 84 23 9 29 38 28 62-2 24-7 50 5 72 17 29 57 33 91 33m-251-863c10-12 28-13 43-13 8 0 18 1 21 8 15 32 49 55 84 55 35 0 70-21 85-53 4-8 16-10 26-10 115 0 230 0 345 0 9 0 20 2 24 10 15 32 50 53 85 53 36 0 70-23 84-55 3-7 11-8 18-8 16 0 35 0 46 12 10 11 10 28 8 43-8 40-30 77-61 102-17 13-36 23-56 28-19 4-39 4-59 4-222 0-444 0-665 0-4 0-7 0-10-2-3-2-4-5-4-9-10-43-17-87-20-131-1-12-1-25 6-34m378 238c94-1 187-1 280 0 4 0 4 6 2 9-34 65-78 125-139 165-42 28-92 45-143 44-3 0-6 0-8-2-1-2-1-4-1-6 0-67 0-134 0-201 0-2 0-5 2-7 2-2 5-2 7-2m-330 0c84-1 167-1 251 0 2 0 4 0 5 1 3 2 4 6 4 10 0 65 0 131 0 196 0 6-9 7-14 6-56-10-109-34-153-70-44-35-78-82-99-135-1-2-2-4-1-6 2-2 5-2 7-2m164 543c0-18 0-36 0-53 0-5 0-9 2-13 1-4 5-7 9-7 77 0 153 0 230 0 4 0 9 4 10 8 2 5 2 10 2 15 0 14 0 29 1 44 0 6 0 11-3 17-2 5-7 9-12 9-74 0-147 0-221 0-4 0-9 0-12-2-5-4-6-11-6-18m189-256c1 3 1 6 2 10 0 31 0 62-1 94 0 5 0 11-5 13-2 2-4 2-7 2-35 0-70 0-105 0-3 0-8-1-10-4-1-2-1-4-1-6 0-34 0-69 0-103 0-2 0-4 1-6 2-4 8-5 13-5 32 0 65 0 97 0 6 0 13 1 16 5m-203-5c5 0 11 0 14 4 3 3 3 7 3 11 0 32 0 64 0 96 0 5-2 12-7 12-16 1-32 1-47 0-2 0-4 0-6-1-3-2-3-6-3-10 0-33 0-66 0-99 0-5 1-12 7-12 13-1 26-1 39-1m269 0c17 0 34 0 51 1 2 0 4 0 5 2 1 1 2 3 2 5 0 35 0 71 0 107 0 2-1 5-3 7-1 1-3 1-5 1-16 0-31 1-46 1-1 0-3 0-4-1-2-1-2-4-2-7 0-35 0-70 0-105 0-4 0-8 2-11m276-562c-1 6-2 12-6 17-1 2-2 3-4 5-5 4-11 7-17 8-9 1-19-3-25-9-7-6-10-16-10-25 2-16 18-29 34-29 2 0 4 1 5 2 2 2 5 2 7 3 9 3 14 12 14 20 0 2 2 4 2 5 0 1 0 2 0 3m-586-31c9 3 19 9 21 18 0 4 0 7 2 10 1 0 1 1 1 2-2 6-3 11-6 16-4 7-11 12-19 14-7 2-15 1-22-3-5-3-10-8-13-14-6-14 0-33 14-40 5-3 11-6 17-5 2 1 3 1 5 2z" horiz-adv-x="1000" />

<glyph glyph-name="kayaking" unicode="&#xe816;" d="M18 831c16 15 42 13 64 10 216-35 423-131 589-274 17 13 33 27 46 43-18 11-24 36-20 56 4 21 16 39 28 56 22 32 45 62 69 92 13 16 28 33 48 36 23 3 44-14 61-30 19-17 37-35 55-53 24-23 49-54 40-85-6-20-23-34-40-46-31-22-62-45-94-68-23-17-57-35-80-16-10 9-27 7-39-1-12-7-20-19-28-31 145-160 233-367 274-579 6-29 7-67-19-81-14-8-30-6-46-4-219 34-429 130-598 275-11-7-22-14-29-25-8-11-10-26-3-37 21-29-1-68-23-97-19-26-39-52-58-78-16-21-35-44-61-45-24-1-44 17-62 34-17 16-34 33-51 49-23 23-49 54-39 85 6 16 20 28 34 38 26 20 52 40 79 60 18 15 38 30 61 36 22 6 50 1 64-19 16 15 31 30 43 48-147 160-233 369-274 583-5 23-8 51 9 68m914-912c-42 226-138 449-308 604-110 102-246 171-388 217-55 18-111 33-169 38 44-215 130-429 288-583 41-40 86-75 134-107 133-88 286-146 443-169m-2 787c-24 24-49 49-73 74-2 1-3 2-5 3-4 1-7-3-10-6-27-37-53-74-80-111-2-2-4-5-3-8 0-2 2-4 3-6 14-13 27-26 40-39 2-3 5-5 8-5 3 0 6 1 8 3 37 27 74 54 111 81 3 2 5 4 5 6 1 3-2 6-4 8m-861-713c25-25 50-49 74-74 2-2 5-4 7-4 4 0 6 3 8 6 27 36 53 73 80 110 2 3 5 6 4 10-1 2-2 4-4 5-14 14-28 28-42 41-1 2-3 4-5 4-2 0-5-1-6-3-38-27-76-54-113-82-3-2-7-5-6-8 0-2 2-4 3-5z m554 421c16-16 32-33 44-52 20-34 23-78 9-114-14-37-46-67-84-78-37-12-80-5-113 17-13 9-24 20-35 31-26 26-52 52-77 78-10 9-19 19-27 30-26 35-32 84-16 124 16 41 53 72 95 81 43 9 89-4 120-35 28-27 56-55 84-82m-117 29c-7 6-13 13-21 18-27 18-66 13-88-10-23-23-26-62-8-88 5-7 11-13 16-18 27-28 55-55 82-83 11-11 23-22 37-29 26-13 59-7 80 14 20 21 25 55 12 80-7 13-18 23-28 34-27 27-55 54-82 82z" horiz-adv-x="1000" />

<glyph glyph-name="elephant" unicode="&#xe817;" d="M64 317c0-28 0-56 0-84 0-14 0-30 6-43 6-13 21-24 35-22 22 4 32 33 53 36 18 3 35-17 33-35-1-19-14-35-30-45-25-17-58-23-87-14-29 8-55 30-66 58-7 21-8 44-8 66 0 113 0 225 0 338 0 27 0 54 7 80 18 74 87 126 157 154 82 32 171 41 259 44 22 0 45 1 67-6 36-11 65-42 78-77 14-35 14-75 6-112-19-84-83-157-165-186-8-3-17-6-26-5-22 3-34 35-19 52 8 8 20 12 30 16 67 26 116 93 121 165 2 28-5 60-27 76-20 14-45 14-69 13-80-3-162-10-236-41-49-20-96-53-112-103-7-23-7-47-7-71 0-85 0-169 0-254z m832-307c-25 0-53 2-70 20-13 15-17 36-18 56-3 32-3 65 0 97 2 27-27 46-53 51-21 4-43 4-64 4-52 0-103 0-155 0-14 0-29 0-39-9-14-11-15-31-15-49 0-30 1-60 1-90 0-16 0-33-8-47-16-31-58-34-93-33-27 0-56 2-74 21-15 17-17 43-17 66-1 54-1 108 0 161 0 26-15 50-35 66-20 16-45 25-70 31-14 4-28 7-40 15-11 9-19 23-15 37 4 13 17 21 31 22 13 1 26-4 39-9 57-20 118-48 142-103 13-30 12-64 12-97-1-43-2-85-3-127 0-4 0-8 2-12 3-3 8-5 12-6 11-2 23-5 35-3 12 3 22 13 22 25-1 27-1 54-2 81-1 25-1 51 10 73 21 39 71 51 116 50 44 0 89-9 131 4-13 14-26 30-30 49-3 19 9 42 28 43 22 1 35-23 46-42 27-46 74-79 126-88 22-3 27-32 26-54 0-39-1-78-1-117 0-13 12-23 25-25 12-2 25 2 37 6 1 128 1 256 2 383 0 25 0 50-6 74-13 55-58 102-113 116-34 10-71 7-107 5-14 0-29 0-42 6-13 6-24 21-20 35 6 18 29 23 48 24 54 3 110 2 161-17 64-24 116-78 133-144 9-33 9-68 9-102 0-125 0-249 0-373 0-12 0-24-5-35-7-18-24-30-43-35-18-5-37-5-56-4z m-765 557c-4 22 10 46 31 53 21 7 47-3 57-22 11-20 5-47-13-60-10-8-23-11-36-9-19 3-36 19-39 38m60-2c2 3 3 7 3 11 0 3 0 6-2 8-3 6-10 8-17 7-2 0-4 0-6-1-3-1-5-5-6-8-1-4-1-7 0-11 0-3 1-6 3-8 2-2 4-2 6-2 7-1 15-1 19 4z" horiz-adv-x="1000" />

<glyph glyph-name="camera" unicode="&#xe818;" d="M1000 559c0-97 0-194 0-291 0-27 0-55-13-78-19-40-66-58-110-61-44-4-88 3-131-2-70-8-140-45-206-23-87 31-183 27-275 23-13-1-26-1-36-8-36-24-81-23-124-22-34 1-74 4-93 33-12 17-12 40-12 61 0 145 0 291 0 437 0 28 2 60 24 78 17 15 42 16 64 16 26 0 52 0 77 1 21 0 44-1 57-17 8-9 23-7 35-4 57 14 114 29 172 43 12 3 27 9 27 22 1 35 31 63 64 74 32 12 68 10 103 7 33-2 70-7 89-34 16-23 17-63 46-70 40-10 80-20 121-30 36-9 75-20 98-50 22-29 23-69 23-105m-191-141c-12 65-54 124-112 155-58 31-131 33-191 7-60-26-107-81-124-145-22-84 12-180 82-231 70-52 171-56 245-10 74 46 115 139 100 224m-741-256c3-2 6-2 9-2 32 0 64 0 95 0 3 0 7 0 10 2 5 3 6 11 6 17 0 155 0 310 0 465 0 6 0 11-5 15-3 2-7 2-10 2-32 0-64 0-96 0-3 0-7 0-9-2-6-3-6-10-6-16 0-155 0-310 0-464 0-6 0-14 6-17m311 36c-43 50-67 116-66 182 0 66 24 131 66 181 5 6 10 12 14 19 2 4 4 9 5 13 9 26 17 51 25 76 1 4 2 9-1 11-54-14-107-27-160-40-4-1-8-2-10-5-2-3-2-7-2-11 0-140 0-281 0-421 0-3 0-6 1-8 2-3 7-4 11-4 37 0 73 0 109 0 5 0 11 3 8 7m559 60c0 107 0 214 0 321 0 14 0 27-6 39-11 19-34 27-56 32-32 9-65 17-97 26-5 1-11 2-15-1 7-25 15-51 23-76 5-12 9-24 18-34 42-48 67-110 70-174 3-63-17-128-55-179-5-6-11-13-10-21 22 3 44-1 66 0 22 1 46 10 56 30 6 11 6 24 6 37m-449 383c67 26 144 26 211 0 3-2 8-2 8 1 0 1 0 2 0 3-13 38-26 77-38 116-2 5-4 10-7 14-8 11-23 12-37 12-21 0-43 0-64 0-12 0-25 0-34-8-6-6-9-14-12-23-12-37-24-74-36-112-1-2 1-4 3-4 2-1 4 0 6 1z m-50-244c6 56 45 107 98 128 53 20 116 9 159-28 43-37 62-99 49-154-8-34-28-65-55-86-28-22-63-33-98-33-46 0-92 23-121 60-25 31-37 73-32 113m248-32c5 39-15 80-50 98-32 17-73 13-102-10-28-22-41-62-32-97 9-35 40-63 75-69 25-4 51 2 71 16 20 15 34 38 38 62z" horiz-adv-x="1000" />

<glyph glyph-name="chat_typing" unicode="&#xe819;" d="M365 422c17-10 27-31 23-51-5-19-22-34-42-36-20-1-40 12-47 30-2 5-3 11-3 17 1 15 10 30 22 38 7 4 15 7 23 7 8 1 17-1 24-5z m143-1c7 4 13 6 20 6 5 1 10 0 15-1 17-5 31-20 33-38 4-22-11-45-33-51-21-6-46 6-55 27-8 20 1 47 20 57z m-199-453c-11 6-23 1-34-5-71-34-142-68-213-103-18-8-42-16-55-2-13 14-5 36 3 53 35 74 71 148 106 222 7 14-1 31-8 45-76 159-53 362 59 499 112 138 305 203 477 160 172-42 313-190 348-364 34-173-39-364-182-469-142-105-346-120-501-36m-47 58c19 9 41 17 58 7 133-81 313-76 441 12 128 87 198 253 172 406-27 153-148 285-298 324-150 40-321-16-419-136-99-120-119-299-50-438 9-19 20-39 18-60-1-11-6-22-11-32-25-54-51-108-76-161 55 26 110 52 165 78z m495 330c-10-15-30-23-47-20-18 4-33 19-37 37-3 17 5 37 21 47 3 2 6 3 9 5 6 2 12 3 18 3 9-1 19-4 26-10 4-4 7-8 10-12 8-12 9-28 4-41-1-3-2-6-4-9z" horiz-adv-x="1000" />

<glyph glyph-name="list_menu" unicode="&#xe81a;" d="M0 675c0 31 0 63 0 94 0 13 0 26 4 39 6 17 19 31 36 37 14 5 28 5 42 5 29 0 58 0 86 0 16 0 32 0 46-7 9-4 17-11 23-19 13-18 13-43 13-65 0-24 0-48 0-72 0-23-1-49-17-66-17-20-47-21-74-21-23 0-47 0-71 0-19 0-40 0-57 10-14 8-24 21-28 36-3 10-3 19-3 29m63 111c-1-1-1-3-1-5 0-36 0-73 0-109 0-3 0-6 2-7 2-1 4-2 6-2 36 0 72 0 109 0 2 0 5 0 7 2 1 2 2 5 2 7 0 37 0 74 0 111 0 1-1 3-2 4-1 1-2 1-4 1-37 0-75 0-112 0-3 0-6 0-7-2z m-60-890c-3 11-3 23-3 34 0 30 0 61 0 92 0 12 0 25 4 36 5 15 17 28 31 34 15 7 32 7 49 7 27 0 55 0 82 0 22 0 46-1 62-15 10-8 16-21 19-34 3-13 3-27 3-40 0-28 0-55 0-83 0-7 0-14-1-21-4-27-26-51-53-55-5-1-10-1-15-1-35 0-71 0-106 0-8 0-16 0-23 1-23 5-43 23-49 45m184 134c0 2 0 5-1 6-2 1-4 2-6 2-36 0-72 0-108 0-3 0-6-1-8-3-2-1-2-4-2-7 0-37 0-74 0-111 0-4 5-5 9-5 36 0 72 0 107 0 3 0 6 0 7 1 2 2 3 5 3 8 0 36 0 72-1 109z m146 260c-11 4-19 15-20 27 0 12 7 24 17 29 8 4 18 4 26 4 201 0 401 0 601 0 9 0 18 0 26-4 10-5 17-16 17-27 0-11-7-22-17-27-8-4-17-4-26-4-201 0-402 0-604 0-6 0-14 0-20 2z m-8-370c-15 11-15 37 1 48 9 6 21 6 33 6 199 0 399 0 599 0 8 0 17 0 25-3 10-5 17-16 17-27 0-11-6-22-16-27-9-4-18-4-28-4-199 0-397 0-596 0-12 0-25 0-35 7z m-85 337c-6-12-17-22-30-27-13-4-27-4-40-4-30 0-60 0-90 0-13 0-26 0-38 4-17 5-31 19-37 36-5 13-5 27-5 41 0 31 0 62 0 92 0 9 0 18 2 27 5 22 23 41 45 46 10 3 20 3 30 3 32 0 63 0 94-1 13 0 26 0 38-4 14-5 26-16 33-29 8-16 8-34 8-52 0-25 0-50 0-76 0-19 0-39-10-56m-53 154c-2 2-4 2-6 2-37 0-74 0-111 0-2 0-4 0-6-1-2-2-2-5-2-7 0-36 0-72 0-108 0-2 0-4 1-6 2-3 7-4 11-4 35 0 69 0 103 0 4 0 8 0 9 3 1 2 2 4 2 6 0 37 0 74 0 111 0 1-1 3-1 4z m139 259c-16 11-16 40 1 50 9 5 20 5 31 5 200 0 400 0 601 0 8 0 16 0 23-3 10-4 17-14 18-25 1-10-4-21-13-27-10-6-22-7-34-7-198 0-396 0-594 0-11 0-23 1-33 7z" horiz-adv-x="1000" />

<glyph glyph-name="sandwich_menu" unicode="&#xe81b;" d="M989 215c-6-4-15-4-22-4-311 0-622-1-933-1-8 0-16 1-23 5-16 9-12 37 3 48 15 12 36 12 55 12 288 0 575 0 862 1 20 0 40-1 56-13 15-11 19-39 2-48z m-980 623c11 11 29 12 45 12 305 0 609 0 914 0 17 0 32-15 32-32 0-17-15-32-32-32-313 1-625 1-938 0-11 0-23 8-28 19-4 11-2 24 7 33z m2-285c11 9 26 9 40 9 300 0 599 0 898 0 14 0 29 0 39-9 10-8 14-22 10-34-4-12-16-21-29-21-313 0-625 0-938 0-13 0-25 9-29 21-4 12 0 26 9 34z" horiz-adv-x="1000" />

<glyph glyph-name="fast_train" unicode="&#xe81c;" d="M47-146c-12-7-28-5-38 4-9 9-12 25-5 37 2 4 5 7 8 11 29 34 59 68 89 102 3 5 7 9 11 12 11 7 26 6 36-2 10-7 14-22 10-33-2-8-8-14-13-20-28-33-56-65-85-98-4-5-8-9-13-13z m27 505c-23 116-14 245 57 339 78 104 216 146 345 151 73 3 146-4 215-28 68-23 131-64 175-122 50-65 72-147 73-228 0-81-21-161-51-236-35-85-84-167-153-228-68-61-159-100-251-96-68 3-133 30-188 70-55 41-99 94-134 152-42 70-72 146-88 226m794 31c14 82 11 172-31 244-33 56-87 97-147 121-60 25-126 33-190 33-65 0-131-8-191-33-60-25-114-66-146-122-40-68-44-152-33-229 14-99 52-194 110-275 61 79 160 128 260 128 100-1 199-49 260-129 55 78 92 168 108 262m-158-310c-17 43-57 74-100 92-72 29-156 28-227-4-42-19-81-51-95-95 51-60 129-97 209-98 79-1 158 34 211 94 2 1 3 3 4 6 0 1-1 3-2 5z m290-197c1-14-8-27-20-31-13-5-27 0-36 10-30 34-59 68-88 102-6 6-11 13-14 21-4 11-1 24 8 32 8 8 21 10 32 5 8-3 13-9 19-16 27-32 55-63 83-95 7-8 15-17 16-28z m-315 534c-18-4-37-4-56-4-96 0-191 0-286 0-40 0-80 21-103 55-22 33-27 78-12 116 15 37 49 66 89 75 17 3 35 4 53 4 90 0 180 0 270-1 12 0 24 0 36-2 56-9 103-61 105-118 2-57-40-112-96-125m-55 184c-87 0-174 0-260 0-18 0-37-1-53-8-23-11-38-37-35-62 2-25 21-47 46-53 10-3 20-3 30-3 95 0 191 0 286 0 8 0 16 0 24 2 25 5 46 26 50 51 4 25-9 52-32 63-17 9-37 10-56 10z" horiz-adv-x="1000" />

<glyph glyph-name="train" unicode="&#xe81d;" d="M997-108c5-10 4-23-4-32-7-9-19-13-30-11-8 2-15 8-22 13-35 26-70 52-105 79-7 5-14 10-18 17-6 11-5 25 3 35 8 9 22 13 34 9 5-2 10-6 15-9 35-27 71-53 107-80 8-6 16-12 20-21z m-961-43c-12-2-25 4-31 14-7 10-7 24 0 34 4 5 9 8 14 12 36 27 73 55 109 82 6 5 12 9 19 11 14 4 30-3 36-16 6-12 2-29-9-38-38-28-76-57-114-86-7-5-15-11-24-13z m560 349c-3 15 1 31 12 42 10 11 27 16 41 13 14-2 26-11 32-23 7-12 7-27 2-40-4-11-13-20-24-24-13-5-27-5-39 1-12 6-21 18-24 31z m-408-70c0 128-1 256-1 384 0 27 0 54 10 79 9 25 27 46 51 57 26 13 57 14 87 14 42 0 84 0 126 0 5 0 7 6 7 11-1 38-1 76-1 114-25 0-50 0-75 0-13 1-26 1-36 8-15 11-14 38 1 48 10 6 22 7 34 7 70 0 140 0 210 0 12 0 24 0 34-4 11-4 21-14 22-25 1-13-10-25-22-30-12-5-26-5-39-4-18 1-35 1-53 2-9 0-12-11-12-20 0-30 1-60 1-91 0-7 2-17 9-17 33 1 66 1 98 2 29 0 59 0 87-7 28-7 55-22 70-47 16-26 17-59 17-90 0-125 0-251 0-377 1-33-2-72-29-92-18-13-42-14-64-14-144 0-287 0-431 0-32 0-68 2-87 27-14 18-14 42-14 65m546 457c-15 14-37 15-57 15-117 0-234 0-351 0-23 0-49-1-63-18-13-15-13-35-13-54-1-47-1-94-1-141 0-2 0-4 2-5 1-3 5-3 8-3 160 0 319 0 479 0 4 0 9 0 11 4 2 2 2 4 2 6 0 45 0 90 0 135 0 22-1 46-17 61m-483-482c3-4 9-4 13-4 157 0 314 0 471 0 5 0 11 0 14 4 1 3 2 6 2 9 0 64 0 128 0 191 0 4 0 7-2 10-3 4-9 5-14 5-156 0-311 0-466 0-9 0-20-3-20-11 0-65 0-130 1-195 0-3 0-6 1-9z m133 144c16-10 24-31 20-49-4-18-21-33-39-36-21-2-43 12-49 31-5 14-3 29 5 40 6 10 17 17 28 20 12 2 25 0 35-6z" horiz-adv-x="1000" />

<glyph glyph-name="cycling-copy" unicode="&#xe81e;" d="M592 40c-1-16-5-33-12-48-16-30-50-50-84-49-34 1-67 24-80 56-17 42 0 94-22 135-16 28-48 43-76 59-29 16-59 38-64 70-2 14-18 21-32 23-40 6-81 2-118-14-12-4-24-11-36-12-13-2-28 2-34 14-7 12-2 28 8 38 10 10 23 14 37 18 55 18 116 28 172 11 13-4 24 10 30 23 21 39 42 77 63 116 29 54 65 114 126 125-40 35-57 93-42 144 14 51 60 91 112 99 52 9 108-15 138-59 10-16 22-36 41-35 16 1 31-14 31-30-1-16-16-29-32-27-12 1-18-15-22-27-17-64-88-109-155-98 12-34 27-71 59-87 26-12 56-7 83-15 36-11 64-45 66-82 3-37-19-75-52-91-22-10-47-12-71-10-42 4-82 17-118 38-7 4-14 9-22 9-7 0-16-6-15-13 86-64 134-175 121-281m80 314c10 6 16 17 16 28-1 12-8 22-18 27-8 4-18 4-27 4-55 3-112 31-135 82-4 8-7 18-12 26-6 8-13 16-23 17-18 3-32-16-41-32-37-65-74-130-111-195-5-8-10-17-9-26 1-14 13-24 25-31 31-20 66-35 91-63 36-41 44-100 42-155-1-13 9-26 22-30 14-3 28 5 34 17 3 6 3 12 4 18 4 41 0 84-14 123-14 40-39 75-74 98-10 7-20 12-29 20-9 8-15 20-14 31 0 8 4 15 8 22 10 18 20 35 30 53 7 12 15 25 29 28 16 4 31-9 44-19 38-30 86-48 135-48 9 0 19 1 27 5m-184 338c-2-2-1-6 0-9 11-29 42-51 73-51 32-1 63 20 75 49 2 5 3 10-1 13-2 2-5 2-7 2-44 0-87 0-130 0-4 0-8-1-10-4m134 68c-18 22-49 33-76 27-15-4-29-12-39-22-2-2-4-5-3-7 2-2 4-2 6-2 33-1 65-1 97-1 5 0 12 1 15 5z m-288-685c18-54 7-117-29-161-35-45-94-69-151-64-57 6-109 42-135 93-27 50-25 114 3 164 29 49 83 83 140 86 22 1 45-3 66-10 49-17 89-58 106-108m-262-8c-8-19-10-40-7-60 7-38 36-73 73-85 27-9 58-7 84 6 26 12 46 36 55 63 12 36 4 77-21 106-24 28-63 43-100 37-37-6-70-32-84-67z m859 92c39-29 65-76 69-125 4-62-27-125-80-158-53-33-123-35-177-4-54 31-88 94-86 156 2 62 41 121 97 148 56 27 127 20 177-17m6-156c4 24-1 50-13 71-19 36-61 59-102 56-41-2-79-29-95-67-15-38-7-85 20-115 27-31 73-44 112-32 39 11 71 46 78 87z m-131 286c-11 3-21 12-23 24-2 11 3 24 12 30 11 8 26 8 39 6 37-3 73-12 106-27 8-3 17-7 22-14 8-9 9-22 4-33-5-10-17-17-28-17-9 1-17 5-25 8-29 13-61 21-93 22-5 0-9 0-14 1z" horiz-adv-x="1000" />

<glyph glyph-name="scooty" unicode="&#xe81f;" d="M202 107c-1 45-1 91-1 136-1 39-1 77 8 115 21 91 94 164 177 208-57 47-157-9-212 40-19 17-33 46-58 46-22 0-44 0-65-1-18 0-38 2-47 17-12 19 6 44 27 50 22 6 44 0 66-1 22-2 48 5 57 25 18 39 71 46 114 43 43-3 93-7 124 23 57 56 160 56 217 0 31-30 80-26 123-23 43 3 95-4 114-42 9-19 32-27 52-27 21 0 42 5 62 3 17-1 35-10 39-26 5-19-14-38-34-42-20-4-40 1-60 2-21 1-44-4-54-21-25-41-80-52-128-49-38 3-82 10-109-17 78-42 148-105 173-189 10-37 12-76 12-114 1-48 1-96 1-143 0-34-1-69-13-101-25-66-99-104-169-101-17 1-20-24-21-42-1-42-34-81-75-91-42-9-88 12-108 50-13 24-14 53-16 81-78-5-164 37-188 112-8 25-8 52-8 79m410 382c-3 1-5 2-8 1-1-1-2-3-3-5-6-25-2-52-1-79 1-26-4-55-24-72-19-16-46-17-70-18-17 0-35 0-52 4-17 4-33 13-42 28-11 17-11 38-11 58 1 24 1 47 1 71 0 4 0 8-2 10-5 6-14 3-20-1-49-33-90-82-105-140-6-20-8-41-9-62-1-18-1-36-1-54 0-38 0-75 0-113 0-29 1-60 15-85 20-34 63-50 103-50 8 0 19 4 19 12 0 46 0 93-1 139 0 13 0 26 3 38 8 44 49 79 94 80 44 1 87-32 98-75 4-16 3-32 3-48 0-45 0-90 0-136-1-6 7-8 13-9 44-4 92 15 111 55 12 23 12 50 12 77 0 37 1 74 1 112 0 39 0 78-10 116-16 62-58 116-114 146m-209 218c-8-35 4-73 30-97 26-23 66-31 99-20 33 11 59 40 66 74 8 34-5 72-30 95-26 23-65 32-98 21-33-10-60-39-67-73m68-838c5-12 17-20 30-19 13 0 25 9 29 20 2 7 2 14 2 22 0 83 0 167 0 251 0 7 0 14-2 20-4 13-17 22-31 21-13 0-26-10-29-23-2-5-2-11-2-17 0-83 0-167 0-251 0-8 0-16 3-24m194 843c0-19 0-38 0-57 0-1 0-3 1-4 1-1 2-1 4-1 25 0 51 0 77 0 14 0 30 0 41 9 8 7 13 17 12 28 0 10-6 20-15 26-11 6-23 6-35 6-26 0-53-1-80-1-1 0-2 0-3-1-2-1-2-3-2-5m-330 0c0 2 0 4-1 5-1 1-3 1-4 1-28 0-56 1-84 1-8 0-17 0-25-3-11-5-19-16-21-28-1-12 5-24 15-31 11-7 24-7 37-7 24 0 49 0 73 0 5 0 11 2 11 6 0 19-1 38-1 56m139-328c18 0 35 0 53 0 1 0 3 0 4 1 1 1 1 3 1 5 0 40 0 79 0 119 0 6-7 8-12 8-14 2-29 1-43 0-2 0-5-1-7-3-2-2-2-5-2-8 0-39 0-78 0-117 0-1 1-3 2-4 1-1 2-1 4-1z" horiz-adv-x="1000" />

<glyph glyph-name="taxi" unicode="&#xe820;" d="M312 779c-1-110-1-219-1-329 0-18 0-38-12-51-13-15-35-17-55-18-19-1-38-2-57-2 0-157 0-314 0-471 0-13 0-27-5-38-5-12-17-22-30-20-22 3-27 31-27 53 0 159 0 317 0 475-18 1-35 2-52 2-22 1-47 3-61 20-11 14-12 34-12 52 0 109 0 217 0 326 0 19 1 40 13 54 15 16 40 18 62 18 53 0 106 0 159 0 24 0 51-1 66-20 11-14 12-34 12-51m-249-334c2-2 5-3 8-3 55 0 110 0 165 0 3 0 7 0 9 2 5 3 5 9 5 14 0 108 0 215 0 322 0 2 0 4-1 5-2 2-5 2-7 2-58 0-116 0-173 0-2 0-5 0-6-1-1-1-1-3-1-4 0-111 0-221 0-332 0-2 0-3 1-5z m420-345c14 0 27 0 40 0 6 0 13-1 18-2 10-4 18-13 20-23 2-11-2-22-11-28-10-9-25-9-38-9-10 0-20 0-30 0-10 0-22 1-31 6-8 5-14 15-14 25 0 10 6 20 14 25 10 6 21 6 32 6z m302-61c-4 0-7 0-10 0-13 3-24 14-25 27-1 13 6 26 18 31 8 3 16 3 24 3 14 0 28 0 42 0 6 0 12 0 18-2 12-4 20-15 21-26 1-12-6-24-16-30-9-4-19-4-29-4-14 0-29 0-43 1z m-251 373c82 0 164 0 246 0 14 0 27 0 41-3 38-11 63-49 76-87 13-37 18-78 37-113 18-34 47-63 59-100 5-18 6-37 7-56 0-25 1-50-6-74-7-24-24-46-47-55-8-3-11-12-12-21 0-8 2-17 1-26-3-17-24-30-41-24-17 5-26 27-19 43 3 5-1 12-6 14-4 3-10 3-16 3-132 0-265 0-397 0-6 0-11 0-16-3-5-2-8-8-6-13 9-19-7-45-28-45-21-1-39 23-32 42 4 10-2 21-10 28-7 7-17 11-25 18-25 21-27 58-28 90 0 31-1 62 10 90 12 31 38 56 54 86 19 35 24 76 37 114 12 38 36 76 75 88 14 4 30 4 46 4m-119-259c-9-13-17-26-26-40-6-7-11-15-13-24-2-6-2-13-2-19 0-18 0-35 0-53 0-11 1-23 8-32 9-10 24-11 38-11 157 0 314 0 472 0 13 0 29 1 37 12 7 8 8 20 8 31 0 20 0 41 0 61 0 12-7 22-13 32-10 15-20 29-29 44-3 3-5 6-8 8-4 2-8 2-11 2-147 0-294 0-441 0-4 0-7 0-11-2-4-2-6-5-9-9m81 193c-9-5-12-16-16-25-10-30-20-60-30-90-1-4 4-6 8-6 132 0 264 0 396 0 3 0 8 2 7 5-11 31-21 62-31 92-3 10-7 20-15 25-7 4-14 4-22 4-91 0-182 0-272 0-9 0-18 0-25-5z" horiz-adv-x="1000" />

<glyph glyph-name="bus" unicode="&#xe821;" d="M728 162c11-4 20-15 21-27 1-12-6-24-17-29-7-3-15-3-23-3-36 0-71 0-107 0-7 0-14 0-21 3-12 4-19 17-18 29 1 13 11 24 23 27 5 1 10 1 15 1 36 0 73 0 109 0 6 0 12 0 18-1z m-303-52c-10-7-22-7-34-7-37 0-74 0-111 0-14 0-27 12-29 26-2 14 7 28 21 32 5 2 12 2 18 2 34 0 69 0 104 0 10 0 20 0 29-5 8-5 14-14 14-23 1-10-4-20-12-25z m184 611c15-7 20-30 9-44-10-13-29-14-46-14-49 0-98 0-146 0-15 0-30 1-41 11-7 6-11 17-9 27 2 10 10 19 19 22 7 2 13 2 20 2 56 0 112 0 168 1 9 0 18-1 26-5z m-484-625c0 125 0 251 0 376-15 15-43 6-54-12-12-18-11-40-11-62 1-36 2-73 3-110 1-14 1-28-4-41-6-12-19-23-32-20-22 3-27 32-27 53 0 45 0 89 0 133 0 28 0 56 13 80 17 31 55 49 89 42 11-2 21 7 24 18 3 10 1 21 0 32-6 54 3 111 31 158 27 48 73 85 126 99 30 8 62 8 94 8 85 0 170 0 255 0 26 0 52 0 77-6 59-12 111-55 139-109 28-54 35-118 24-178-2-9 6-17 15-20 9-2 18-1 28-1 29 0 58-17 72-44 13-24 13-52 13-79 0-45 0-91 0-137 0-18-3-41-20-48-15-5-31 5-38 19-7 13-6 29-6 45 2 34 3 69 4 103 1 22 1 45-10 63-11 19-38 29-55 15 0-127 0-254 0-381-1-30-2-62-23-83-15-15-42-26-39-48 7-56-46-112-102-108-57 4-100 68-85 122-75 1-151 1-226 2-12 0-29-5-27-17 9-52-36-107-90-108-53-1-101 52-94 105 4 24-26 37-43 55-20 22-21 54-21 84m689 203c0 76 0 153 0 230 0 2 0 5-2 7-2 2-5 2-8 2-202 0-404 0-606 0-3 0-7 0-9-3-1-2-1-4-1-6 0-77 0-154 0-231 0-3 0-7 3-9 2-1 5-1 7-1 202 0 404 0 605 0 3 0 6 0 8 1 2 2 3 6 3 10m-574-262c173 0 346 0 519 0 17 0 36 1 46 14 9 10 9 24 9 37 0 46 0 92 0 138-206 0-412 0-618 0-2 0-4 0-6-2-2-1-2-4-2-6 0-46 0-92 0-138 0-8 0-18 5-26 8-15 29-17 47-17m-52 574c1-3 1-6 3-8 2-2 5-2 8-2 201 0 401 0 602 0 3 0 7 0 9 3 2 2 2 4 2 7 7 58-21 120-70 153-12 8-26 15-40 18-20 6-41 6-62 6-92 0-183 0-275 0-20 0-40 0-60-4-37-8-70-32-91-64-21-32-29-71-26-109m62-665c0-9 4-17 10-23 5-5 14-9 22-9 2 0 5 1 7 1 11 3 19 12 22 23 4 10 3 21 2 32 0 1-1 3-2 5-1 1-3 1-5 1-17 0-34 1-51 0-2 0-4-2-5-4 0-2 0-5 0-7 0-6 0-13 0-19m438 8c0-8 0-15 3-22 5-12 20-18 33-17 3 1 6 2 9 3 9 4 14 13 16 22 2 10 2 19 1 29 0 2-1 5-2 6-2 1-3 1-4 1-16 1-32 1-48 0-2 0-4-1-6-2-2-2-2-5-2-8 0-4 0-8 0-12z" horiz-adv-x="1000" />

<glyph glyph-name="water_sports" unicode="&#xe822;" d="M523-71c-11 8-25 17-36 9-41-36-96-55-151-53-54 2-108 24-147 62-35-30-78-51-123-60-14-3-30-5-44 1-14 6-25 21-21 36 6 23 37 24 60 27 29 3 56 17 77 38 14 15 29 35 50 35 20-1 34-20 48-35 24-26 61-40 97-39-16 38-32 76-48 115-4 8-9 18-18 19-28 5-56 11-85 17-23 6-48 13-64 31-14 15-19 35-24 54-16 62-32 124-48 186-7 25-14 51-13 78 1 26 11 53 32 69 23 18 55 19 85 20 81 0 163 1 244 1 24 0 49 0 71-7 23-7 45-22 53-45 4-11 19-13 31-13 131 1 261 1 392 1 13 0 27 0 39-6 12-5 22-18 20-32-4-20-31-25-52-25-137 0-274 0-410 0-16 0-23-19-33-31-20-28-59-31-94-31-54-1-108-1-163-2 1-17 1-35 8-51 7-16 21-30 38-31 55-4 103-40 135-85 33-44 51-96 70-148 5-15 27-10 40-3 34 17 68 34 102 52 38 20 80 43 96 83 6 13 8 27 14 39 7 12 19 23 33 21 13-1 22-13 25-25 2-13-1-26-5-38-12-32-31-61-56-85-29-27-65-45-100-63-27-14-54-27-80-41 60-42 150-32 201 21 12 12 23 27 40 29 23 2 39-21 55-38 17-18 40-30 64-34 16-2 31-2 46-7 14-5 27-19 25-34-3-22-32-28-53-25-50 5-98 27-134 61-76-72-205-80-289-18m-306 299c-7 8-10 18-12 27-9 35-18 70-27 105-3 14-6 30 2 41 9 12 26 13 41 13 64-1 127-1 190-1 20-1 43 1 53 18 9 14 2 35-13 41-7 3-15 3-23 3-98 1-196 1-294 1-10 0-20 0-28-6-15-11-12-34-8-52 18-71 36-142 54-213 3-10 5-21 12-29 10-11 26-14 41-17 19-3 37-7 56-10 19-4 40-7 55-20 14-12 21-29 28-46 17-40 34-80 51-120 0-2 1-4 3-5 2-1 5 0 7 1 14 5 27 13 39 22 2 2 5 4 6 7 1 4-1 8-2 12-11 25-22 50-32 76-17 39-35 79-69 104-28 21-63 28-97 34-12 3-25 5-33 14z m-163 442c-15 50 0 107 38 143 38 35 97 47 146 28 37-14 67-44 81-82 14-37 11-80-8-115-19-35-53-61-92-70-34-8-71-2-101 15-31 18-54 47-64 81m163 113c-10 4-21 6-32 5-9 0-18-2-26-5-34-13-55-52-48-87 6-35 40-64 76-64 36 0 70 28 77 63 7 36-14 74-47 88z" horiz-adv-x="1000" />

<glyph glyph-name="spa" unicode="&#xe823;" d="M761-108c-6 3-14 8-20 4-42-31-105-30-146 3-40 32-55 93-34 141-49 25-77 86-62 138 14 53 68 92 123 89 9-1 13 9 17 17 19 44 67 74 115 71 49-2 93-37 108-83 1-5 8-6 13-5 54 2 108-37 121-89 14-53-13-113-61-137 21-47 7-106-32-140-38-33-99-37-142-9m-163 201c12-3 24-3 34-10 9-7 14-20 11-31-4-11-13-19-19-29-16-23-11-58 11-75 22-18 57-15 76 6 8 7 13 17 22 23 9 6 22 6 31-1 9-5 14-15 20-22 19-21 55-24 77-6 22 18 27 53 10 76-5 7-12 14-16 22-4 9-3 21 2 29 5 9 15 15 26 16 22 0 42 15 50 36 8 20 3 45-12 60-16 16-41 21-61 13-7-3-14-7-21-8-11-2-23 3-29 13-7 12-5 27-7 41-5 27-31 48-58 46-27-1-51-25-53-52-1-7 0-14-1-21-2-16-18-30-34-27-7 1-14 5-21 8-28 12-65-5-75-34-10-29 8-64 37-73z m-264 588c10 36 3 75-17 106-7 11-15 21-16 34 0 13 10 26 22 28 8 2 17 0 24-2 66-17 125-61 161-119 36-57 49-129 36-196-3-15-7-31-14-45-28-65-98-110-169-108-71 2-138 49-164 116-25 66-6 147 45 195 12 11 26 21 42 22 15 1 33-9 36-24 1-7 2-16 9-15 3 1 4 5 5 8m31-73c-14-9-33-5-49 0-13 5-26 10-35 21-3 4-9 0-11-4-26-37-27-88-5-126 23-39 69-62 113-57 45 5 85 37 99 79 2 5 3 10 4 15 9 39 7 81-7 118-14 38-39 71-71 95-1 1-5 2-4 0 7-41 1-83-18-120-4-8-9-16-16-21z m117-300c16-11 15-39-1-49-10-6-21-6-32-6-125 0-250 0-375 0-3 0-6 0-8-1-4-3-4-9-3-14 12-78 59-149 124-192 65-44 149-58 225-40 13 4 27 8 40 3 17-7 23-32 12-46-7-9-19-12-29-15-92-25-194-10-274 40-81 51-139 136-158 229-5 25-6 53 10 73 8 12 22 19 36 22 12 3 25 3 38 3 120 0 240 0 361 0 11 0 24 0 34-7z m261-252c-14 2-27 10-34 21-8 12-10 27-5 41 7 22 33 36 55 30 23-6 39-31 35-53-4-23-28-41-51-39z" horiz-adv-x="1000" />

<glyph glyph-name="light" unicode="&#xe824;" d="M910 383c17 0 33 0 49 0 5 0 10 0 15-1 14-4 26-17 26-32 1-14-10-28-24-33-6-2-13-2-19-2-16 1-33 1-49 1-4 0-8 0-13 1-14 3-26 16-26 31 0 15 10 29 25 33 5 1 11 1 16 2z m-861-68c-11 0-22 0-31 5-11 6-18 18-18 30 0 13 9 24 20 29 8 4 17 4 26 4 15 0 29 0 44 0 6 0 12-1 18-2 13-4 23-18 23-32 0-14-10-28-24-32-5-1-11-1-17-1-13 0-27-1-41-1z m135 304c-10 9-19 19-29 28-5 5-11 11-14 18-6 11-4 27 4 37 9 10 25 13 37 8 6-3 11-8 16-13 12-12 24-24 37-37 3-3 7-6 9-11 7-11 7-26-2-37-8-10-23-14-36-10-9 3-16 10-22 17z m48-586c-10-9-19-18-28-28-8-7-15-15-25-18-12-3-25 0-33 9-8 9-11 22-6 33 3 9 9 15 15 21 13 13 26 26 39 39 11 10 29 12 41 4 12-8 17-26 12-39-3-8-9-14-15-21z m621 9c7-8 11-19 9-30-2-11-9-20-19-24-7-3-14-3-21-1-10 3-18 11-25 18-10 11-20 21-31 31-4 5-9 9-12 15-5 11-4 26 4 36 9 9 23 13 35 9 10-3 17-11 24-18 12-12 24-24 36-36z m-33 580c-9-9-18-18-30-21-12-3-25 2-32 11-7 9-9 22-4 33 3 7 9 13 14 18 14 14 27 27 40 40 11 10 29 12 42 3 12-9 16-26 10-40-3-6-8-11-13-16-9-9-18-19-27-28z m-288 137c0-8 0-15-3-22-4-12-16-20-29-20-12 0-24 8-29 20-2 7-2 14-2 22 0 16 0 33 0 49 0 8 0 15 2 22 5 12 17 20 30 20 12 0 24-9 28-21 2-6 2-13 2-20 1-17 1-33 1-50z m-77-904c-69 19-122 88-121 159 1 18 4 35 3 52-1 17-7 35-21 46-98 76-140 217-100 335 40 118 160 203 285 203 124 0 244-87 284-204 39-118-3-259-102-335-13-10-19-27-19-43-1-16 2-33 2-49 3-73-50-145-121-164-9-2-14-12-14-22-1-9 1-18-1-27-3-14-16-24-30-25-14 0-27 11-30 24-2 9 0 19-1 28 0 10-5 20-14 22m224 343c60 72 69 183 22 265-34 60-96 103-165 114-68 11-140-10-192-56-64-56-93-150-71-233 21-83 91-151 175-169 83-19 176 13 231 79m-77-151c1 3 1 7-1 11-1 3-5 6-8 5-60-18-126-18-186 0-5 1-8-6-9-12-1-18 0-37 4-55 1-4 2-9 4-13 9-29 32-53 61-63 29-10 62-6 88 11 25 16 42 45 45 76 1 13 1 26 2 40z" horiz-adv-x="1000" />

<glyph glyph-name="bicycle" unicode="&#xe825;" d="M423 593c12 10 23 21 37 28 32 17 74 11 101-13 12-11 21-25 31-39 16-22 34-45 60-55 22-9 46-7 68-15 39-13 66-56 61-98-5-41-40-76-82-82-17-3-36 0-53 3-51 10-101 29-140 64-7 7-19 13-24 5-4-6 1-14 6-19 61-67 99-155 105-245 1-20 1-41-5-60-14-38-54-65-94-62-40 3-77 35-85 74-2 12-2 24-3 36-6 63-38 124-89 160-16 12-34 21-48 34-24 22-37 56-29 87 7 30 30 53 53 74 43 41 87 82 130 123m273-211c12 3 22 15 23 27 1 12-6 25-17 31-9 4-18 4-27 5-55 5-103 41-133 87-6 9-12 19-20 26-8 8-19 13-29 10-8-2-14-8-20-13-51-48-102-97-153-145-10-10-20-20-20-34 1-18 19-29 34-38 75-45 126-128 133-215 1-18 2-38 16-49 11-10 30-8 40 4 8 10 9 24 8 37-4 89-44 176-109 236-11 10-24 23-22 38 1 10 9 18 16 25 15 14 30 29 45 43 8 7 17 15 27 16 17 2 29-12 41-24 39-40 94-65 150-68 6 0 12 0 17 1z m-331-226c2-6 4-11 5-17 6-27 6-56-1-83-7-30-22-59-42-82-44-49-114-72-178-59-65 14-120 63-140 126-21 62-5 134 39 183 44 49 114 72 178 58 64-14 119-64 139-126m-215-177c12-4 26-6 39-6 15 0 29 3 43 9 22 8 41 22 54 40 33 42 34 105 4 149-31 43-90 63-141 47-50-16-88-66-88-119 1-53 38-104 89-120z m814 8c-25-34-62-59-103-70-40-10-85-7-123 10-45 20-81 58-98 103-18 45-18 97 1 141 23 55 73 97 131 110 74 17 157-16 199-80 41-64 39-153-7-214m-270 150c-12-36-5-78 16-109 22-32 58-52 96-55 41-2 82 16 107 49 25 32 33 76 20 115-12 38-44 70-83 82-31 9-66 6-95-9-28-15-51-42-61-73z m55 569c-8-50-50-94-101-103-46-9-96 11-124 50-27 38-30 92-7 133 22 41 70 67 117 64 34-3 67-20 89-47 21-27 31-63 26-97m-166 63c-1-2-3-3-4-4-19-18-27-47-19-72 2-6 4-11 7-15 14-25 45-39 73-34 28 5 52 29 57 57 5 28-9 58-34 73-24 15-57 12-80-5z" horiz-adv-x="1000" />

<glyph glyph-name="shopping_bag" unicode="&#xe826;" d="M211 627c23 0 45-1 67-1 15-1 35 5 33 20-9 53 5 110 38 152 11 14 24 26 41 29 17 4 37-7 39-24 2-21-20-34-34-50-26-28-25-72-22-110 1-5 2-11 5-14 3-2 7-2 10-2 14-1 27-1 40-2 11 0 21-1 31 3 10 5 17 15 15 25-16 62 10 133 63 169 52 37 127 37 180 1 53-36 80-106 66-168-4-15 12-27 26-30 15-2 31 2 46-1 23-3 43-22 53-44 11-21 14-46 17-70 24-180 48-359 71-539 4-25 7-51-1-76-7-25-28-47-53-56-20-8-41-8-62-8-253 0-506 0-758 0-22 0-44 0-65 8-27 11-49 36-55 65-4 20-1 40 1 59 25 187 49 374 73 561 4 26 8 52 24 72 26 31 71 32 111 31m492-2c6 0 12 0 17 4 4 4 5 11 5 17 2 34 0 71-19 100-18 27-49 43-81 42-32 0-63-19-79-46-17-30-17-66-16-99 1-68 1-136 2-204 1-17 1-34-8-48-9-14-29-23-42-13-11 9-12 24-12 38 1 46 1 91 1 137 0 10-14 14-24 14-41-1-82-1-123-1-4 0-7 0-9-3-2-2-1-5-1-7 28-217 57-434 85-651 0-3 1-7 3-9 3-2 6-2 9-2 161 0 322 0 484 0 11 0 23 1 31 8 13 10 12 29 10 46-25 194-51 388-76 583-1 8-3 17-8 23-5 5-12 7-18 9-10 3-20 6-30 4-9-1-19-9-19-19 0-43 1-86 1-129 0-16-1-33-14-42-13-9-33 0-42 15-8 15-7 32-7 49 1 33 3 66 4 99 0 11-3 27-14 26-33 0-65 0-97 0-21-1-46 3-52 23-3 14 7 28 20 34 13 6 28 6 42 5 26-1 52-2 77-3m-624-726c9-5 19-5 29-5 74 0 147 0 221 0 2 0 4 0 5 2 2 1 2 4 2 7-27 207-54 413-81 620-1 9-3 20-8 28-12 15-34 16-53 16-16-1-35-2-45-15-6-8-8-19-9-29-26-194-51-387-76-581-1-8-2-16 0-24 2-8 8-15 15-19z" horiz-adv-x="1000" />

<glyph glyph-name="currency_exchange" unicode="&#xe827;" d="M207 403c43 11 89 12 133 3 25-6 50-15 72-27 89-46 149-144 150-245 1-100-56-199-144-248-87-49-202-46-287 7-85 54-137 156-130 256 6 100 70 195 161 237 15 7 30 13 45 17m162-473c74 32 127 109 131 190 4 81-40 162-111 202-71 40-164 36-231-10-67-45-105-130-94-210 11-81 70-152 147-179 10-3 20-6 31-8 24-4 49-4 74 0 18 2 36 8 53 15z m-28 913c11 1 21-5 27-14 5-9 5-21 0-30-7-12-21-17-34-23-69-31-122-95-140-168-1-8-3-16-1-24 20 12 40 24 60 35 7 5 14 9 23 11 17 3 37-12 36-30-1-17-18-29-32-37-43-26-86-52-129-77-10-6-21-12-32-10-13 3-21 15-27 26-27 44-54 89-81 133-5 8-10 17-10 26-1 11 4 22 13 27 9 6 21 7 30 2 10-5 16-15 22-24 19-33 39-65 58-98 4 26 9 53 17 78 28 87 97 160 183 193 5 2 11 4 17 4z m354-726c4 7 11 11 18 15 46 28 93 56 140 84 8 5 17 10 27 9 13-2 22-14 29-26 26-45 53-89 80-134 5-8 11-17 11-27 1-11-5-22-14-27-10-6-22-6-31 0-8 5-14 14-19 22-18 30-35 59-53 89-1 1-1 2-2 2-4 2-7-4-8-8-12-108-85-207-184-251-15-6-32-11-45-4-13 6-19 22-14 35 6 15 24 22 38 29 73 33 127 103 141 181 1 4 0 9-3 9-20-11-39-23-58-34-9-6-19-11-29-11-11-1-22 6-27 16-5 10-4 22 3 31z m-469 4c-34 14-57 51-53 88 3 36 33 69 69 76 7 2 10 11 14 18 5 10 17 16 29 15 11-2 21-10 25-21 2-7 10-10 17-10 7-1 14 1 21 0 12-2 23-11 25-23 3-12-2-25-12-32-10-8-24-8-37-7-15 0-29 0-44 1-9 0-19 0-29-3-9-3-17-12-17-21-1-8 4-15 10-20 6-5 13-8 21-11 17-7 35-14 53-21 12-5 25-10 36-18 27-19 42-55 35-88-7-32-35-60-68-66-8-2-10-12-14-19-5-9-16-15-27-15-11 0-21 7-25 17-2 4-3 7-5 10-5 5-14 4-22 4-11-1-23 2-31 10-13 13-10 38 6 47 10 5 21 5 32 5 14-1 29-1 43-1 12-1 25-1 35 5 11 5 19 17 15 29-4 9-14 14-23 18-27 11-53 22-79 33z m544 725c100-19 188-97 218-194 30-98 1-212-72-283-69-68-173-96-266-72-93 23-172 98-200 190-28 92-5 197 59 269 64 72 166 107 261 90m166-307c4 28 2 56-5 84-15 60-58 113-114 141-55 28-123 31-181 7-58-24-104-73-124-132-19-58-14-123 16-176 29-54 82-93 141-107 59-15 124-2 174 32 50 34 85 91 93 151z m-310-86c0 79 0 157 0 236 0 5 0 9 1 13 3 10 11 18 20 21 10 4 20 4 30 2 4-1 9 2 11 5 3 4 4 8 7 12 5 9 15 14 25 14 10 0 20-6 25-15 3-6 6-15 14-16 33-3 64-25 77-56 13-31 9-69-12-95-3-4 0-10 3-14 19-27 22-64 8-94-14-29-45-50-77-53-7 0-9-8-12-14-5-11-17-18-29-17-12 1-23 10-26 22-2 6-10 9-16 10-7 0-14-1-21-1-12 2-23 11-26 22-2 6-2 12-2 18m62 157c0-5 1-10 5-10 17 0 34 0 51 0 12 1 26 2 32 12 4 6 4 13 4 20 0 0 0 0 0 1 0 6 0 12-3 18-3 5-9 8-15 10-6 2-12 2-18 2-16 0-31 0-47 0-2 0-6 0-8-2-1-2-1-5-1-7 0-15 0-30 0-44m74-74c-5 2-11 2-17 1-17 0-34 0-51 0-2 0-4 0-5-1-1-1-1-3-1-5 0-16 0-31 0-47 0-3 0-6 2-7 1-1 3-1 5-1 16 0 32 0 48 0 6 0 12 0 18 1 9 3 17 11 19 21 1 3 1 6 3 8-2 12-9 25-21 30z" horiz-adv-x="1000" />

<glyph glyph-name="brush_paint" unicode="&#xe828;" d="M297 177c12-3 24-6 34-13 10-7 18-19 16-31-3-13-16-22-29-23-13-2-26 2-38 6-65 22-132 60-159 123-4 10-7 21-14 30-7 9-19 15-29 11-17-5-18-29-14-46 18-79 66-149 123-207 33-34 69-65 112-86 97-47 222-30 303 40 13 12 27 25 44 24 16-2 28-18 26-34-2-11-11-20-19-28-56-51-128-83-203-90-75-7-153 12-216 53-23 15-44 32-64 50-72 66-132 147-160 241-10 31-15 67-2 97 11 24 34 43 60 48 26 5 54-2 74-20 25-23 34-58 54-85 24-31 63-49 101-60z m116-72c0 14 10 25 17 37 26 44 12 99 19 150 8 64 57 125 121 133 15 2 34 4 40 17 52 104 104 209 155 313 11 22 22 45 40 62 35 36 95 43 138 19 43-25 66-81 54-129-8-29-26-53-44-77-69-90-137-180-205-269-7-10-15-21-12-33 17-66-15-138-67-182-52-45-120-65-188-73-14-2-29-3-42 1-14 5-26 17-26 31m255 307c1-3 5-6 8-8 6-4 12-8 19-12 73 97 147 195 220 292 10 12 19 25 22 40 5 22-6 46-25 57-19 11-45 9-61-6-11-9-17-22-23-34-53-106-105-211-158-317-1-4-3-8-2-12m-5-81c-4 6-9 13-15 17-6 5-14 8-22 11-14 5-29 9-43 7-8-1-15-4-22-7-14-7-27-18-36-31-10-16-14-36-15-55-2-19 0-39-1-58 0-24-4-49-11-72 2-6 10-5 16-4 9 2 19 5 27 7 39 12 74 34 103 63 22 22 41 52 36 83-2 14-9 27-17 39z" horiz-adv-x="1000" />

<glyph glyph-name="shield" unicode="&#xe829;" d="M362 258c-6 6-13 12-16 21-6 16 8 37 26 39 17 2 32-12 44-25 15-15 29-30 44-46 3-2 6-5 10-5 3 0 6 2 8 5 70 70 141 141 212 212 5 5 11 11 18 14 10 4 23 2 31-6 9-7 12-19 9-30-3-10-10-17-17-24-67-68-135-135-202-202-8-9-17-17-27-24-15-9-33-13-50-8-16 5-28 17-40 29-17 17-33 33-50 50z m634 118c-12-120-62-235-140-326-78-91-184-157-300-187-18-5-36-8-54-9-20 0-39 4-58 9-221 57-399 254-434 479-8 54-9 108-10 162 0 71 0 142 1 213 0 44 4 96 42 120 21 13 47 13 71 13 256 0 513 0 769 0 27 0 56-1 79-16 35-25 38-74 38-117 0-74 0-147 0-221 0-40 0-80-4-120m-934 100c0-33 0-66 4-99 11-102 53-201 119-280 65-79 155-139 253-169 21-6 43-11 65-11 20 0 40 5 60 11 98 30 187 90 252 168 66 79 107 178 119 280 4 40 4 80 4 120 0 32 0 63 0 94 0 2 0 5-1 7-3 3-8 3-12 3-287 0-573 0-860 0-2-41-3-82-3-124m11 305c-9-9-10-23-10-36 0-27 0-54 0-82 288 0 576 0 864 0 3 0 6 0 8 2 2 2 2 5 2 9 1 22 1 45 1 68 0 13-1 28-10 37-9 9-23 9-35 9-263 0-526 0-789 0-11 0-23 0-31-7z" horiz-adv-x="1000" />

<glyph glyph-name="sea_plane" unicode="&#xe82a;" d="M460 76c14 12 29 27 46 24 12-2 20-11 29-19 28-27 67-43 106-43 39 1 78 16 106 43 6 6 12 13 19 16 23 10 46-10 65-25 29-22 65-35 101-34 13 0 25 2 38 0 12-2 24-9 28-21 5-15-6-31-20-37-14-6-30-6-45-4-42 3-86 10-121 34-12 9-29 20-42 11-75-57-187-56-261 0-8 7-19 0-27-6-74-51-180-49-251 5-11 9-27 0-39-7-42-27-92-40-142-38-11 0-23 2-33 7-10 6-18 17-17 28 1 14 15 25 29 28 14 3 29 0 43 0 40 0 77 17 108 42 13 10 27 22 43 20 13-2 23-13 33-21 55-50 148-51 204-3z m481 382c5 11 17 18 30 17 12-1 23-10 26-22 2-5 2-11 2-16 0-34 0-67 0-100 0-12 0-25-6-35-7-9-19-14-30-13-11 2-21 11-24 21-2 6-2 12-2 18 0 35 0 70 0 105 0 9 0 17 4 25z m48 383c10-11 11-28 11-43-1-32-1-64-1-97 0-5 0-10-2-15-3-12-15-22-28-22-13-1-26 8-30 20-2 7-2 14-2 20 0 36 0 73 1 109 0 5 0 10 1 16 3 9 11 18 21 20 10 3 21 0 29-8z m-325-366c13-4 23-17 22-30 0-14-10-27-23-30-5-1-10-1-15-1-97 0-194-1-291-1-8 0-18 0-26 4-12 6-20 21-17 35 3 13 16 24 30 24 101 0 202 0 303 0 6 0 11 0 17-1z m-437 177c9-18 15-42 34-50 25-11 50 13 67 33 35 42 74 80 120 108 46 29 100 47 154 44 96-4 185-79 205-174 3-11 17-13 28-13 46 0 92 0 138 0 21 0 31-30 19-47-12-17-37-20-57-14-19-105-93-198-191-239-6-3-5-12-3-18 8-26 23-57 50-57 24 1 48 1 72 2 28 0 58 1 83-11 33-16 55-51 54-87 0-18-7-37-22-46-15-9-39-4-44 12-5 16 7 34 1 50-6 17-28 19-46 19-259 0-518 0-776 1-18 0-40-3-48-19-7-18 7-39-2-56-7-14-27-16-40-8-13 8-20 24-22 39-5 43 24 88 66 100 18 6 37 6 55 5 29 0 58 0 86-1 29 0 44 34 52 61-31 5-63 10-90 27-38 25-57 69-75 111-26 63-53 126-79 189-10 24-20 51-10 75 14 33 58 41 94 37 50-6 104-27 127-73m321 68c-81-25-147-86-199-154-7-10-15-20-27-25-7-3-15-3-23-3-17 0-33 0-50 0-7 0-15 0-22 3-19 6-27 28-35 47-7 16-16 32-29 45-25 26-64 37-99 28 32-78 64-155 97-233 6-14 12-29 21-41 12-16 29-27 48-32 15-4 31-4 46-4 128 0 257 0 385 0 15 0 29 0 44 3 21 4 40 13 57 25 55 36 95 95 108 159-61 0-122 0-184 0-23 0-47 0-69 9-20 9-36 25-45 45-17 37-6 80-10 120 0 3 0 5-2 7-3 3-8 2-12 1m-218-435c-8-16-16-32-24-48-2-3-3-8 0-10 1-1 3-1 5-1 126 0 253 0 379 0 2 0 4 0 5 1 2 2 1 6 0 8-8 17-16 33-24 49-1 1-2 3-3 4-2 1-3 1-5 1-108 0-216 0-324 0-4 0-8-1-9-4m295 356c0-10 0-21 6-29 8-10 23-12 37-12 23 0 46 0 70 1 2 0 5 0 6 2 2 2 1 4 1 6-15 54-59 98-113 112-2 1-4 1-6 0-1-1-1-3-1-5 0-25 0-50 0-75z" horiz-adv-x="1000" />

<glyph glyph-name="sailing_boat" unicode="&#xe82b;" d="M217-29c17 1 30-13 43-24 58-48 150-46 205 4 10 9 19 19 32 21 17 2 31-13 44-24 55-48 145-48 200-1 11 9 21 21 35 23 21 4 39-13 56-26 34-24 76-37 117-35 13 1 25 3 36-3 19-9 20-40 2-51-6-4-14-5-22-6-55-6-112 7-158 37-10 7-24 14-34 7-78-59-196-56-272 6-75-62-193-65-271-7-11 8-26-1-38-8-44-27-96-40-148-36-14 1-30 4-38 15-11 13-6 35 9 43 10 5 22 4 34 3 47-2 94 13 130 42 12 9 24 20 38 20z m-130 191c117 0 234 0 351 1 0 36 0 73 0 109 0 5 0 10-3 13-3 4-9 4-15 4-84-1-169-2-253-3-23 0-46 0-67 8-21 8-40 25-42 48-3 20 9 40 21 57 84 131 168 261 252 391 11 17 23 35 40 47 36 26 94 12 116-27 13-24 13-52 13-79 0-184 0-368 0-552 0-7 2-17 10-17 132 0 265 0 398 0 29 0 64-2 82-26 19-26 8-63-9-91-10-17-22-34-36-49-14-15-37-29-54-18-20 13-10 45 7 63 16 17 37 35 36 58-289 0-577 0-866 0-3-18 10-36 24-49 14-12 31-23 39-40 9-17 5-43-13-49-16-5-32 7-44 18-16 16-30 33-44 51-12 17-23 35-27 56-5 20 0 44 16 58 17 16 44 17 68 18m351 594c0 9 0 17-5 24-5 7-15 11-24 7-7-3-12-10-17-17-88-137-177-273-265-410-2-3-4-6-2-8 2-2 4-2 6-2 100 0 200 0 300 0 2 0 4 0 6 2 1 1 1 3 1 5 0 133 0 266 0 399z m367-531c-68 0-135 0-203 0-8 0-16 0-23 4-14 8-15 27-15 43 0 101 0 202 0 303 0 7 0 14 1 21 3 20 16 38 33 47 18 10 41 9 58-1 15-9 25-24 35-39 57-89 113-177 170-266 8-11 15-23 18-36 8-31-13-66-44-74-10-2-20-2-30-2m-180 71c0-3 1-7 4-9 1 0 3 0 4 0 58 0 116 0 174 0 4 0 8 1 9 4 0 2-1 3-2 5-57 88-114 177-170 265-5 8-10 15-16 22-3-5-3-10-3-15 0-91 0-181 0-272z" horiz-adv-x="1000" />

<glyph glyph-name="paste" unicode="&#xe82c;" d="M997 339c3-13 3-26 3-38 0-114 0-227 0-341 0-12 0-23-2-35-7-36-37-66-73-73-12-2-23-2-35-2-114 0-228 0-341 0-13 0-26 0-38 3-34 7-63 36-70 70-3 12-3 25-3 37 0 113 0 225 0 337 0 16 0 32 4 47 10 39 48 68 88 68 120 0 240 0 361 0 11 0 22 0 33-2 36-7 66-36 73-71m-497-387c0-9 0-19 5-27 9-12 26-13 41-13 116 0 232 0 348 0 13 0 27 1 36 10 8 8 8 21 8 33 0 117 0 235 0 352 0 13-1 26-10 35-8 7-20 8-31 8-119 0-238 0-356 0-11 0-24-1-32-8-8-9-9-22-9-34 0-118 0-237 0-356z m376 635c0-19 0-37 0-56-1-24-8-56-32-56-13 0-23 9-28 21-4 11-4 24-4 36 0 28 0 57 1 85 0 13-1 27-10 36-8 9-22 10-35 10-32 0-65 0-97 1-18 0-42-5-44-23-2-16-15-29-30-35-15-6-32-6-48-6-74 0-148 0-222 0-16 0-33 0-48 6-15 5-29 18-31 35-2 18-27 23-46 23-33-1-66-1-99-2-12 0-25-1-33-9-7-8-8-20-8-31 0-222 0-444 0-666 0-11 1-22 7-31 9-13 28-14 44-14 67 1 135 1 203 2 13 0 27 0 40-6 12-5 22-19 19-32-4-21-31-25-52-25-68 0-137 0-206 0-19 0-39 0-57 6-22 8-40 24-49 45-11 22-11 48-11 73 0 214 0 429 0 643 0 19 1 39 9 57 15 34 56 49 94 51 37 3 76-4 113 2-13 34-24 77 1 103 18 19 47 20 72 20 98 0 195 0 293 0 28 0 61-2 80-24 21-27 9-66-3-98 31-8 65-3 97-2 33 0 68-5 91-28 28-27 30-71 29-111m-306 78c3 2 4 5 5 9 12 36 25 73 37 109 0 1 0 2 0 2 0 2-3 3-5 3-113 0-226 0-339 0-2 0-3 0-4-1-1-2-1-4 0-6 12-37 24-75 37-112 2-5 9-6 14-6 82 0 163 0 245 0 4 0 7 0 10 2z m292-510c8-6 13-17 12-27-1-10-8-20-17-24-8-4-17-4-25-4-76 0-152 0-228 0-7 0-14 0-21 3-11 4-19 14-20 26 0 11 6 23 16 29 9 4 19 5 29 5 10 0 20 0 30 0 63 0 126 0 188 0 13 0 26 0 36-8z m-5 128c11-4 18-16 18-27 0-11-7-22-18-27-8-4-17-4-26-4-76 0-152 0-228 0-6 0-13 0-19 2-12 4-21 16-21 28 0 13 8 25 20 30 7 2 14 2 21 2 76 0 152 0 228 0 8 0 17 0 25-4z m-149-299c-11-10-27-10-42-10-19 0-38 0-58 0-10 0-22 1-31 6-8 5-13 14-14 24 0 9 4 19 11 25 11 8 26 9 39 9 22-1 43-1 65-1 7 0 14 0 21-3 9-3 17-12 18-22 2-10-1-21-9-28z" horiz-adv-x="1000" />

<glyph glyph-name="chat" unicode="&#xe82d;" d="M10 216c-10 21-10 46-10 69 0 148 0 297 1 445 0 30 1 63 20 87 25 31 70 33 110 33 210 0 420 0 630 0 19 0 39 0 57-7 18-7 34-21 43-38 14-24 14-53 14-81 0-46 0-92 0-138 0-18-3-42-21-48-13-4-29 5-35 18-6 13-6 28-6 42 0 47 1 94 1 141 0 13 0 28-9 37-9 11-26 12-41 12-220 0-440 0-660 0-10 0-21 0-29-6-12-9-13-26-13-40 0-157 0-313 0-469 0-13 1-28 9-37 11-12 28-12 43-12 29 1 57 1 86 2 15 0 31-1 41-12 8-9 9-23 9-35 0-35 0-70 1-105 16 3 29 14 41 26 12 11 25 23 41 28 16 4 36-2 41-18 5-19-12-36-28-47-33-25-67-50-101-75-9-7-21-15-33-13-19 4-24 30-24 49 0 47 0 94-1 142-32-5-66-9-98-4-32 6-64 24-79 54z m865-315c0-19-3-42-20-49-17-6-33 8-46 20-50 51-101 101-151 152-6 7-14 13-23 13-49 0-99 0-148 0-16 0-34 2-43 15-6 8-6 18-6 28 0 117 0 234 0 351 0 12 0 25 9 34 8 9 22 9 35 9 159 0 318 0 476 0 11 0 22 0 30-6 11-9 12-25 12-39 0-118 0-235 0-352 0-8 0-16-4-23-8-15-28-17-45-17-23 0-46 0-69 0-6 0-7-7-7-12 0-42 0-83 0-124m-61 61c0 33 0 67 0 100 0 8 0 15 3 22 8 14 28 16 44 16 24 0 49 0 73 0 3 0 4 4 4 8 0 99 0 199 0 299 0 1 0 3-1 4-1 2-3 2-5 2-142 0-283 0-425 0-2 0-4 0-6-2-1-1-1-3-1-5 0-98 0-197 0-296 0-4 2-10 6-10 45 0 90 0 135 0 7 0 15 0 21-2 13-3 22-13 32-22 34-35 68-69 102-104 5-5 11-10 18-10z m-613 645c-8 6-13 16-13 26 1 10 7 20 16 24 8 5 18 5 28 5 137 0 273 0 410 0 10 0 21 0 30-5 10-6 16-17 15-28-1-11-8-21-18-25-8-4-16-4-24-4-136 0-273 0-410 0-12 0-24 1-34 7z m29-132c35 0 70 0 105-1 7 0 13 0 19-2 11-3 19-14 20-25 2-11-4-23-14-29-9-5-21-5-31-5-33 0-66 0-99 0-7 0-15 0-22 2-11 5-19 17-19 29 0 12 8 24 20 28 6 3 14 3 21 3z m350-183c-11 5-18 17-17 29 1 12 9 23 21 27 6 2 13 2 20 2 77 0 153 0 230 0 6 0 13 0 19-2 13-4 22-17 22-30-1-14-11-26-24-29-5-1-10-1-15-1-76 0-152-1-228-1-10 0-20 0-28 5z m-2-72c9 5 20 5 31 5 75 0 150 0 225 0 6 0 13 0 19-2 12-4 21-16 21-29 0-13-9-25-21-29-6-3-13-3-20-3-74 0-148 0-222 0-12 0-25 1-35 7-8 6-13 16-13 26 1 10 6 20 15 25z" horiz-adv-x="1000" />

<glyph glyph-name="international_travel" unicode="&#xe82e;" d="M519 348c11 20 34 29 55 38 22 8 45 17 68 12 16-4 30-13 43-23 23-16 46-32 69-49 6-4 14-9 21-6 16 5 32 11 48 16 23 8 45 16 69 16 44 1 86-28 101-69 16-41 3-91-29-120-30-26-72-33-110-46-5-2-11-4-16-8-5-5-7-12-10-18-20-53-40-106-61-159-6-18-13-35-27-47-9-7-19-11-29-16-20-8-40-16-61-17-21-1-44 6-57 24-14 19-11 45-8 69 4 25 7 50 10 74 1 7-9 8-16 6-34-13-72-29-106-16-19 8-34 24-48 39-23 25-46 50-68 75-19 20-39 45-36 72 2 19 15 35 30 45 15 11 33 17 51 22 14 5 29 10 45 9 15-1 31-9 37-23 5-12 21-17 34-15 13 3 25 10 37 15-15 12-29 27-37 44-8 18-9 39 1 56m5-278c26 10 53 19 79 28 10 3 19 7 29 7 10 0 20-3 26-11 9-10 7-25 5-38-6-42-12-84-18-126 0-6-1-12 3-16 12 4 25 8 38 12 4 2 9 3 12 6 4 4 6 9 8 14 25 63 49 126 73 188 3 8 7 16 13 22 6 7 15 10 24 13 22 7 44 14 66 21 18 6 37 13 48 28 8 12 11 27 6 41-4 13-16 24-29 29-18 5-37-1-55-7-112-38-224-75-335-113-7-3-15-5-23-5-17 1-30 16-40 29-8 11-23 13-35 11-13-3-24-10-35-17 31-34 61-68 92-102 6-8 14-16 23-17 9-2 17 1 25 3m104 267c-15-5-31-10-46-15-2-1-4-1-5-3-1-1-2-3 0-5 11-12 23-24 35-36 2-2 5-4 8-6 5-2 12 0 18 2 14 5 29 10 44 14 3 1 6 3 6 6 0 2-2 4-4 6-18 13-37 26-56 37z m-6 356c2 4 5 9 3 14-1 4-4 6-7 9-105 85-265 96-382 27 45-17 89-34 133-51 32-12 66-27 81-57 13-25 9-55 4-83-7-39-17-83-51-104-20-12-44-14-66-20-23-6-46-21-50-43-12-72-59-137-124-171-7-3-2-14 4-19 21-19 45-36 70-49 12-7 25-12 34-23 9-10 13-26 6-37-12-18-39-11-58-2-126 66-212 201-219 343-6 142 69 285 189 361 120 76 281 83 406 17 126-67 212-203 217-345 1-12 0-25-7-35-10-13-31-14-42-3-12 11-12 28-13 44-4 69-29 136-71 189-38-31-54-87-38-133 4-13 11-25 13-39 2-13-3-29-15-35-11-6-26 0-35 9-9 9-13 22-17 34-11 30-21 62-16 93 3 21 14 40 24 58 9 17 18 34 27 51m-332-214c20 5 39 10 59 15 8 2 17 4 24 10 9 8 12 21 14 33 2 13 5 25 7 37 2 12 4 26-2 36-6 9-16 13-25 16-60 23-120 46-180 69-4 1-8 3-13 2-4-1-8-4-11-8-55-54-90-127-99-203-9-76 8-156 49-221 1-2 3-5 5-5 2 0 3 1 5 2 28 17 57 34 74 62 8 12 13 26 18 39 10 25 20 50 29 75 4 11 9 23 18 30 8 6 18 9 28 11z" horiz-adv-x="1000" />

<glyph glyph-name="search" unicode="&#xe82f;" d="M997-135c-7-12-24-16-38-11-13 4-24 15-34 25-75 77-151 154-226 230-10 11-26 21-37 12-130-102-325-114-467-28-142 87-220 266-188 428 33 163 173 299 337 324 164 26 340-59 421-204 81-145 61-339-47-465 87-87 173-173 260-260 14-14 29-34 19-51m-509 915c-42 10-87 12-129 6-45-7-88-22-127-44-29-18-57-40-80-65-82-89-112-223-76-338 36-116 137-209 255-236 118-27 249 14 331 102 83 89 114 222 78 338-35 116-134 209-252 237z" horiz-adv-x="1000" />

<glyph glyph-name="old_phone" unicode="&#xe830;" d="M601 601c-69 0-138 0-206 0-21 0-48-6-50-27-2-38-22-78-58-92-17-6-35-6-53-6-39 0-77 0-116-1-24 0-48 1-69 12-38 20-51 69-49 113 4 79 45 160 115 197 31 16 66 23 100 29 191 33 387 32 578-2 27-4 54-10 79-21 81-35 128-126 128-214 0-35-9-73-37-94-25-20-60-20-92-20-34 0-68 1-103 1-17 0-34 0-50 6-28 9-51 33-57 62-3 15-3 32-13 43-11 13-30 14-47 14m114-12c3-17 3-37 17-46 8-5 17-5 26-5 45 0 91 0 136 0 11 0 23 0 32 7 10 9 11 23 12 36 0 30-3 60-15 87-15 37-47 67-84 82-16 6-33 9-50 12-187 34-380 35-567 2-32-5-64-12-90-29-51-33-73-98-69-158 0-11 2-24 11-31 8-8 21-8 32-8 44 0 88 0 132 0 11 0 24 0 33 7 12 11 12 29 15 45 4 24 19 45 40 57 26 16 58 16 88 16 61 0 123-1 184-1 20 0 41 0 60-7 29-10 51-37 57-66z m-524-729c-53 14-96 61-106 115-4 18-4 37-3 56 11 160 124 308 275 360 20 7 22 34 20 55-3 21-3 48 16 57 17 8 37-6 43-23 7-17 3-37-1-55-3-9 11-14 21-14 33 0 65 0 97 0 5 0 11 2 10 6 0 10-1 19-1 28-1 13-1 25 2 37 4 11 14 22 26 24 12 2 24-6 31-17 6-11 6-25 5-37-1-11-4-22-3-34 1-11 7-22 17-26 153-51 268-200 278-361 1-19 1-39-3-58-11-54-55-101-109-114-24-6-49-6-74-6-154 0-307 0-461 0-27 0-54 0-80 7m-8 305c-8-17-15-35-21-53-13-36-23-74-19-111 5-38 30-75 66-84 12-3 23-3 34-3 170 1 339 1 508 1 18 0 36 0 53 7 28 11 46 40 51 69 5 30 0 60-7 89-3 15-7 29-12 43-24 68-70 128-129 168-44 29-94 47-145 56-74 12-152 3-220-29-68-31-126-86-159-153z m369-180l0 0-1 0-1 0-1 0-1 0-1 0 0 0 0 0-1 0-1-1 0 0 0-1-1 0 0 0-1-1 0 0-1 0-1 0-1 0 0-1-1 0-1 0 0 0-1 0-1 0-1 0-1 0 0 0-1-1 0 0-1 0-1 0 0 0 0-1-1 0 0-1-1 0 0 0-1 0-1 0-1 0-1 0-1 0 0 0-1 0-1 0-1 0-1 0-1 0 0 0 0-1-1 0-1 0-1 0-1 0-1 0 0 0-1 0-1 0-1 0-1 0 0 0-1 0-1 0-1 0-1 0-1 0 0 0-1 0-1 0-1 0-1 0-1 0 0 0-1 0-1 0-1 0-1 0 0 0-1 0-1 0-1 0-1 0-1 0 0 0-1 0-1 0-1 0-1 0-1 0 0 0-1 0-1 1 0 0-1 0-1 0 0 0-1 0-1 0-1 0-1 0-1 0 0 0-1 0-1 0-1 0-1 0-1 0 0 0-1 0-1 0 0 1 0 0-1 1-1 0 0 0 0 0-1 0-1 0-1 1 0 0-1 0-1 0 0 0-1 0-1 0-1 0 0 1-1 0-1 0 0 0-1 1 0 0-1 0 0 1 0 0-1 1-1 0 0 0 0 0-1 0-1 0-1 0-1 0-1 0 0 0-1 0-1 0-1 0-1 0-1 0 0 1 0 0-1 0-1 1 0 0 0 1-1 0 0 0-1 1 0 0-1 0 0 1-1 0-1 0-1 0 0 0-1 0 0 1 0 0-1 1 0 0-1 0 0 1-1 0 0 0-1 1-1 0 0 0-1 0-1 0 0 1-1 0 0 0-1 0 0 1 0 0-1 1 0 0-1 0 0 1-1 0-1 0-1 0 0 0 0 1-1 0-1 0 0 0-1 0 0 1-1 0 0 1-1 0 0 1 0 0-1 0-1 0 0 1-1 0 0 0-1 1 0 0-1 0 0 1 0 0-1 0-1 1 0 0 0 1-1 0 0 0-1 1 0 0 0 1-1 0 0 0-1 1 0 0-1 0-1 0 0 1-1 0 0 0 0 1-1 0 0 1-1 0 0 1 0 0-1 0 0 1-1 0-1 0 0 1 0 0-1 0 0 1-1 0 0 1 0 0-1 0 0 1-1 0 0 1 0 0-1 1 0 0-1 0 0 1-1 0 0 1 0 0-1 0 0 1-1 0 0 1 0 1 0 0-1 0 0 1-1 0 0 0-1 1 0 0-1 0 0 1 0 1-1 0 0 0 0 1-1 0 0 1-1 0 0 1 0 0-1 0 0 1 0 1-1 0 0 0 0 1 0 1-1 0 0 0-1 1 0 0-1 1 0 0 0 1-1 0 0 0-1 1 0 0 0 1-1 0 0 0-1 1 0 1 0 0 0 0 0 1-1 1 0 0 0 1-1 0 0 1-1 0 0 1 0 0-1 0 0 1-1 0 0 1 0 0 0 1 0 1-1 0 0 1-1 0 0 0 0 1-1 0 0 1 0 0-1 1 0 1 0 0 0 1 0 1-1 0 0 1 0 1 0 0 0 1-1 0 0 0-1 1 0 0 0 1 0 0-1 1 0 1 0 0-1 1 0 0 0 1 0 1 0 0-1 0 0 1 0 1-1 0 0 0 0 1-1 1 0 0 0 1 0 1 0 1 0 0 0 1-1 0 0 1 0 1 0 1 0 1 0 0-1 0 0 1 0 0-1 1 0 0-1 0 0 1 0 1 0 0 0 1 0 1 0 1 0 1 0 1 0 0 0 1-1 0 0 1 0 1 0 1 0 1 0 0 0 1-1 0 0 1-1 0 0 0 0 1-1 0 0 1 0 0 0 1 0 1 0 1 0 1 0 1 0 0 0 1 0 1 0 1 0 1 0 1 0 0 0 1 0 1 0 1 0 1 0 0-1 1 0 0 0 1 0 1 0 1 0 1 0 0 0 1 0 1 0 1 0 1 0 1 0 0 0 1 0 1 0 1 0 1 0 0 0 1 0 1 0 1 0 1 0 1 0 0 0 1 0 1 0 1 0 1 0 1 0 0 0 1 0 1 0 1 0 1 0 1 0 0 0 1 0 1 0 1 0 1 0 0 0 1 0 1 0 1 0 1 0 1 0 0 1 0 0 1 0 1 0 1 0 1 0 1 0 0 0 1 0 1 0 1 0 1 0 0 0 1 0 1 0 1 0 1 0 0 1 1 0 0 0 0 1 1 0 0 1 1 0 0 0 1 0 1 0 1 0 0 0 1 1 1 0 0 0 1 0 1 0 0 0 1 0 1 0 1 0 1 0 0 1 1 0 0 0 1 1 0 0 1 0 0 1 0 0 1 0 1 0 1 0 0 0 1 1 1 0 0 0 1 0 1 0 0 0 1 0 1 1 0 0 1 0 0 1 1 0 0 1 1 0 0 0 0 0 1 1 1 0 0 0 1 0 1 0 1 1 0 0 0 0 1 0 1 1 0 0 0 1 1 0 0 0 1 0 0 0 1 1 1 0 0 0 1 0 1 1 0 0 1 0 0 1 1 0 0 0 1 1 0 0 0 1 1 0 1 0 0 0 1 0 0 0 1 1 1 0 0 0 1 1 0 0 1 0 0 1 0 0 1 1 0 0 1 0 1 1 0 0 1 0 0 0 1 1 0 0 0 1 1 0 0 0 1 1 0 0 0 1 1 0 0 0 1 1 0 0 1 1 0 0 0 1 1 0 0 0 1 1 0 0 1 0 0 1 1 0 0 0 0 1 1 0 0 1 1 0 0 0 1 1 0 0 1 0 0 1 1 0 0 1 0 0 1 0 0 1 1 0 0 1 0 0 1 0 1 0 0 1 1 0 0 1 0 0 1 0 0 1 1 1 0 0 0 1 0 0 1 0 0 1 1 0 0 1 1 0 0 0 0 1 1 0 0 1 1 0 0 1 0 0 0 1 1 0 0 1 1 0 0 0 0 1 1 0 0 1 1 0 0 1 0 0 1 1 0 0 0 0 1 1 0 0 1 1 0 0 0 1 1 0 0 0 1 1 0 0 0 1 1 0 0 0 1 1 0 0 1 1 0 0 0 1 0 0 1 1 0 1 0 0 1 0 0 1 0 0 1 1 0 0 0 1 1 0 0 1 0 1 0 0 0 1 1 1 0 0 0 0 1 1 0 0 1 1 0 0 0 1 0 0 1 1 0 1 0 0 0 1 1 0 0 1 0 0 0 1 1 0 0 1 1 0 0 0 0 1 0 1 1 0 0 1 0 1 0 1 0 0 0 1 1 0 0 1 1 0 0 0 0 1 1 0 0 1 1 1 0 0 0 0 0 1 0 1 0 1 0 1 0 0 0 1 0 1 1 0 0 1 0 1 0 0 1 1 0 0 0 0 1 1 0 0 1 1 0 0 0 1 1 1 0 1 0 0 0 1 0 1 0 1 0 0 0 1 0 0 0 1 0 1 0 1 1 0 0 0 1 1 0 0 0 1 1 0 0 1 0 0 1 1 0 1 0 1 0 1 0 0 0 1 0 1 0 1 0 1 0 0 0 1 0 1 0 1 0 1 0 1 0 0 0 1 0 1 0 1 0 1 0 1 0 0 0 0 0 1 0 1 0 1 0 1 0 0 0 1 0 1 0 1 1 0 0 1 0 1 0 0 0 1 0 1 0 1 0 1 0 1 0 0 0 1 0 1 0 1 0 1 0 0 0 1 0 1 0 1 0 1 0 1 0 0 0 1 0 1 0 1 0 1 0 1 0 0 0 1 0 1 0 0 0 1-1 1 0 0 0 1 0 1 0 1 0 1 0 0 0 1 0 0 0 1 0 1 0 1 0 1 0 1 0 0 0 1 0 1 0 1 0 1 0 1 0 0 0 1 0 1 0 1 0 1 0 0 0 1 0 1 0 1 0 0-1 1 0 1 0 0 0 1-1 0 0 1 0 0-1 0 0 1-1 1 0 1 0 0 0 1 0 1 0 0 0 1 0 1 0 0 0 1 0 1-1 0 0 1-1 0 0 0-1 1 0 0 0 1-1 0 0 1 0 1 0 0-1 1 0 1 0 1 0 0 0 1 0 1 0 1 0 1 0 0 0 0 0 1 0 1-1 0 0 1-1 0 0 0 0 1-1 1 0 0 0 0-1 1 0 1 0 0 0 1-1 0 0 1 0 0-1 1 0 0 0 1-1 0 0 1 0 0-1 1 0 1 0 0 0 1 0 0-1 1 0 1 0 0 0 0-1 1 0 0-1 1 0 0 0 1-1 0 0 1 0 1 0 0 0 1-1 1 0 0 0 1 0 0-1 1 0 0 0 0-1 1 0 0-1 1 0 0 0 0-1 1 0 1 0 0-1 1 0 0-1 0 0 1 0 0-1 1 0 0-1 0 0 1 0 0-1 1 0 0-1 0 0 1 0 1 0 0-1 1 0 0-1 0 0 1-1 0 0 1 0 0-1 0 0 1-1 0 0 1 0 0 0 1-1 0 0 1 0 1-1 0 0 0 0 0-1 1-1 0 0 1-1 0 0 0 0 1 0 1-1 0 0 0-1 1 0 0 0 1-1 0 0 1-1 0 0 0-1 1 0 0 0 1-1 0 0 0-1 0 0 1-1 0 0 1-1 0 0 0 0 1-1 0 0 1-1 0 0 1-1 0 0 0-1 0 0 1-1 0 0 0-1 1 0 0-1 0 0 1 0 0-1 1 0 0-1 0 0 1-1 0 0 0-1 1 0 0-1 1 0 0 0 0-1 1 0 0-1 1 0 0-1 0 0 0-1 1 0 0-1 1 0 0 0 0-1 1 0 0-1 0 0 1-1 0-1 0 0 0-1 1 0 0-1 0-1 0 0 0-1 1 0 0-1 1 0 0 0 0-1 1 0 0-1 0-1 0 0 1-1 0-1 0 0 0-1 1 0 0-1 0 0 1 0 0-1 0-1 1 0 0 0 0-1 0-1 1 0 0-1 0 0 1-1 0 0 0-1 0 0 1-1 0 0 1-1 0 0 0-1 0-1 0-1 0 0 1-1 0 0 0-1 0-1 0-1 0 0 0-1 0-1 0-1 1 0 0 0 1-1 0 0 0-1 0 0 1-1 0 0 0-1 0-1 0-1 0-1 1 0 0 0 0-1 0-1 0-1 0-1 0 0 0-1 0-1 0-1 0-1 0 0 1-1 0 0 0-1 1 0 0-1 1 0 0-1 0 0 0-1 0-1 0 0 0-1 0-1 0-1 0-1 0 0 0-1 0-1 0-1 1 0 0-1 0-1 0 0 0-1 0-1 0-1 0-1 0-1 0 0 0-1 0-1 0-1 0-1 0 0 0-1 0-1 0-1 0-1 0-1 0 0 0-1 0-1 0-1 0-1 0-1 0 0 0-1 0-1 0-1 0-1 0-1 0 0 0-1 0-1 0-1 0-1 0 0 0-1 0-1 0-1 0-1 0-1 0 0 0-1 0-1 0-1 0-1 0-1 0 0 0-1 0-1 0-1 0-1 0 0-1 0 0-1 0-1 0-1 0-1 0-1 0 0 0-1 0-1 0-1 0-1 0 0 0-1-1 0 0 0 0-1-1-1 0 0-1 0 0-1 0-1 0 0 0-1 0-1 0-1 0-1 0-1 0 0-1 0 0-1 0-1 0-1 0-1 0-1 0 0 0-1 0-1-1 0 0 0 0-1-1 0 0-1 0 0-1-1 0 0 0-1 0-1 0-1 0-1 0 0-1 0 0-1 0-1 0-1 0-1 0 0-1-1 0 0 0-1-1 0 0-1 0 0-1 0 0-1 0-1 0 0-1-1 0 0 0-1 0-1 0 0-1-1 0 0-1-1 0 0 0 0 0-1-1-1 0 0 0-1 0-1-1 0 0-1 0 0-1-1 0 0 0-1-1 0 0-1 0 0-1-1 0 0 0 0 0-1-1-1 0 0 0-1 0-1-1 0 0-1-1 0 0 0 0-1-1 0 0-1-1 0 0-1 0 0 0-1 0-1-1 0 0 0-1-1 0 0 0-1-1 0 0 0-1-1 0-1 0 0-1 0 0-1 0-1 0 0-1-1 0 0-1 0 0-1 0 0-1-1 0 0-1 0 0-1 0 0 0-1-1 0 0-1-1 0 0-1-1 0 0-1 0 0-1 0 0-1 0-1-1 0 0 0 0-1-1 0 0-1-1 0 0 0 0-1-1 0 0-1-1 0 0-1-1 0 0 0 0-1-1 0 0-1-1 0 0 0 0-1-1 0 0-1-1 0 0-1 0 0-1 0 0-1-1 0 0-1-1 0 0 0 0-1-1 0 0-1-1 0 0 0-1 0 0-1-1 0 0-1 0 0-1-1 0 0-1 0-1 0 0-1 0 0-1-1-1 0 0 0 0 0-1-1 0 0-1-1 0 0-1 0 0 0-1-1 0 0-1-1 0 0 0-1-1 0 0 0-1 0 0-1-1 0 0-1-1 0 0 0 0-1-1 0 0-1-1 0 0-1-1 0 0 0-1 0-1 0 0 0-1-1 0 0-1 0-1 0-1 0 0-1-1 0 0 0 0-1-1 0 0-1-1 0 0 0-1 0 0-1-1 0 0 0-1 0-1-1 0 0-1-1 0 0 0 0-1-1 0 0-1-1 0 0-1 0 0 0-1 0-1 0-1 0-1 0 0-1 0 0-1 0-1-1 0 0 0 0-1-1 0 0-1-1 0 0-1 0-1 0 0-1-1 0-1 0-1 0m-93 231l-1-1 0 0-1 0 0 0-1 0-1 0 0-1-1 0 0 0-1 0-1-1 0 0-1 0 0-1 0 0-1-1 0 0-1-1 0 0-1 0 0 0-1-1 0 0 0-1-1 0 0 0-1-1 0 0-1-1 0 0-1 0 0 0-1-1 0 0 0-1-1 0 0-1-1 0 0 0-1 0 0-1-1 0 0-1-1 0 0 0 0-1-1 0-1 0 0-1 0 0-1 0 0-1 0-1-1 0 0-1 0 0-1 0 0-1-1 0 0-1-1 0 0 0 0-1-1 0 0-1-1 0 0 0 0-1-1 0 0-1-1 0 0-1 0 0 0-1-1 0 0-1 0 0-1-1 0 0-1-1 0 0 0 0-1-1 0 0 0-1-1-1 0 0 0-1 0 0-1-1 0 0 0-1-1 0 0-1 0 0-1 0 0-1 0-1-1 0 0-1 0 0 0-1 0-1-1 0 0-1 0-1 0 0-1 0 0-1-1 0 0-1 0 0 0-1-1 0 0-1 0-1 0 0 0-1 0-1-1 0 0-1 0-1-1 0 0-1 0 0-1 0 0-1-1 0 0-1 0 0 0-1 0-1 0 0 0-1 0-1 0-1 0-1 0-1 0 0 0-1 0-1 0-1 0-1 0-1 0 0 0-1 0-1 0-1-1 0 0-1 0 0 0-1 0-1 0-1 0-1 0-1 0 0 0-1 0-1 0-1 0-1 0-1 0 0 0-1 0-1 0-1 0-1 0-1 0 0 0-1 0-1 0-1 0-1 0 0 0-1 0-1 0-1 0 0 1-1 0-1 0 0 0-1 0-1 0-1 0-1 0-1 0 0 0-1 0-1 0-1 0-1 0 0 0-1 0-1 0-1 0-1 0-1 0 0 0 0 0-1 1-1 0 0 1 0 0-1 0 0 1-1 0 0 1-1 0 0 0-1 0-1 0-1 0 0 1-1 0 0 0-1 0-1 0 0 1-1 0 0 1 0 0-1 0-1 0 0 1 0 0-1 0-1 0 0 1-1 0-1 0 0 1-1 0 0 0 0 1-1 0 0 0-1 1 0 0-1 0-1 0 0 0-1 1 0 0-1 0-1 1 0 0 0 0-1 1 0 0-1 1 0 0 0 1-1 0 0 0-1 0 0 1-1 0 0 1-1 0 0 0-1 1 0 0 0 1-1 0 0 0-1 0 0 1-1 0 0 1 0 1-1 0 0 0 0 1-1 0 0 1-1 0 0 0-1 1 0 0 0 1-1 0 0 0-1 1 0 0 0 1-1 0 0 1-1 0 0 0 0 1-1 0 0 1-1 0 0 0-1 1 0 0 0 1-1 0 0 0-1 1 0 1 0 0 0 1 0 0-1 1 0 0-1 1 0 0 0 0-1 1 0 0-1 1 0 0 0 1-1 1 0 1 0 0 0 0 0 1-1 0 0 1 0 0-1 1 0 0 0 1-1 0 0 1 0 1 0 0-1 1 0 1 0 0 0 1 0 0 0 1-1 0 0 1-1 0 0 0-1 1 0 1 0 1 0 0 0 1 0 0-1 1 0 1 0 1 0 0 0 1 0 1 0 0-1 1 0 0 0 1 0 0-1 1 0 0 0 1-1 0 0 1 0 1 0 1 0 1 0 0 0 1 0 1 0 1 0 0 0 1-1 0 0 1 0 1 0 1 0 1 0 1 0 0 0 1 0 1 0 1 0 1 0 1 0 0 0 1 0 1 0 1 0 1 0 0 0 1 0 1 0 1 0 1 0 1 0 0 0 1 0 1 0 1 0 1 0 1 0 0 0 1 0 1 0 1 0 1 0 0 0 1 1 0 0 1 0 1 0 1 0 1 0 0 0 1 0 1 0 0 1 1 0 0 0 1 1 0 0 1 0 0 0 1 1 0 0 1 0 1 0 1 0 1 0 0 0 1 0 1 0 0 1 1 0 1 0 0 0 1 0 1 0 0 1 1 0 0 0 1 1 0 0 1 1 0 0 0 0 1 0 1 0 1 0 0 1 1 0 1 0 0 0 1 1 0 0 1 0 0 1 0 0 1 1 0 0 1 0 0 0 1 0 1 1 0 0 1 0 1 0 0 1 1 0 0 1 0 0 1 0 1 0 0 1 0 0 1 1 0 0 1 0 1 0 0 1 0 0 1 1 0 0 0 1 1 0 0 1 0 0 1 1 1 0 0 0 0 0 1 1 0 0 1 1 0 0 1 0 0 1 0 0 1 1 1 0 0 0 0 0 1 1 0 1 0 0 1 1 0 0 0 0 1 1 0 0 1 1 0 0 1 0 0 1 0 0 1 1 0 0 1 0 0 1 0 0 1 1 0 0 1 1 0 0 0 1 0 0 1 1 0 0 1 0 0 1 0 1 1 0 0 0 0 1 1 0 0 1 0 1 0 0 1 1 0 0 0 1 0 0 1 1 0 0 1 1 0 0 0 0 0 1 1 1 0 0 0 1 0 1 1 0 0 1 0 0 1 1 0 0 0 1 1 0 0 1 0 0 1 1 0 0 0 1 0 0 0 1 0 1 0 1 0 1 0 0 1 1 0 0 0 1 0 1 1 0 0 1 0 0 1 1 0 0 1 0 0 1 0 1 1 0 0 1 0 1 0 1 0 0 0 1 0 1 0 1 0 1 0 0 0 1 0 1 0 1 0 0 0 1 0 1 0 0 0 1 0 1 0 1 0 1 0 1 0 0 0 1 0 1 0 1 0 1 0 0 0 1 0 1 0 1 0 1 0 1 0 0 0 1 0 1 0 1 0 1 0 1 0 0 0 1 0 1 0 1 0 1 0 1 0 0 0 1 0 1 0 1 0 1 0 0 0 0 0 1 0 1 0 1 0 1 0 1 0 0 0 1 0 1 0 1 0 1-1 0 0 1 0 0-1 1 0 0-1 1 0 0 0 0-1 1 0 1 0 0 0 1 0 1-1 0 0 1 0 1 0 1 0 0 0 1 0 1 0 1 0 0 0 1 0 1-1 0 0 0-1 1 0 0 0 1-1 0 0 1 0 0-1 1 0 0 0 1 0 1 0 1-1 0 0 1 0 0 0 1-1 0 0 0-1 1 0 0 0 1 0 0-1 1 0 1 0 0-1 1 0 0 0 0-1 1 0 0-1 1 0 0-1 0 0 1 0 0-1 1 0 0-1 0 0 1 0 0-1 1 0 0 0 1-1 0 0 1 0 1 0 0-1 0 0 1-1 0 0 1-1 0 0 0 0 1-1 0 0 1 0 1-1 0 0 0 0 1-1 0 0 1-1 0 0 0-1 0-1 0 0 1-1 0 0 0-1 1 0 0-1 0 0 1 0 0-1 1 0 0-1 1 0 0 0 0-1 1 0 0-1 1 0 0-1 0 0 1 0 0-1 1-1 0 0 0 0 0-1 0-1 1 0 0 0 1-1 0 0 1-1 0 0 0-1 1 0 0-1 0-1 0 0 1-1 0-1 0 0 0 0 0-1 0-1 1 0 0-1 1 0 0 0 0-1 1-1 0 0 0-1 0 0 1-1 0-1 0-1 0-1 0 0 0-1 0-1 0 0 1 0 0-1 0 0 1-1 0 0 1 0 0-1 0-1 0-1 0 0 0-1 1-1 0 0 0-1 0-1 0-1 0-1 0 0 0-1 1 0 0-1 0-1 0 0 0 0 1-1 0-1 0 0 1-1 0 0 0-1 0-1 0-1 0-1 0 0 0-1 0-1 0-1 0-1 0 0 1-1 0 0 0-1 0-1 0-1 0-1 0 0 0-1-1 0 0-1 0-1 0-1 0-1 0 0 1 0 0-1 0-1 0 0-1-1 0-1 0-1 0 0 0-1 0-1 0-1 0-1 0-1 0 0 0-1 0 0-1-1 0 0-1-1 0 0 0-1 0 0 0-1-1 0 0-1 0-1 0-1 0-1 0 0 0-1 0-1 0 0-1-1 0-1 0-1 0 0 0-1 0 0-1-1 0 0-1 0 0-1 0 0-1-1 0 0 0-1 0-1 0-1 0-1 0-1 0 0-1 0 0-1 0-1 0 0-1-1 0 0 0-1-1 0 0z" horiz-adv-x="1000" />

<glyph glyph-name="man_flag" unicode="&#xe831;" d="M1000 468c0-109 0-218 0-326 0-8 0-16-3-22-5-11-17-17-28-21-69-27-150-40-215-5-16 9-32 21-49 28-40 17-86 9-126-6-7-3-16-7-16-15 0-66 1-132 1-198 0-15-1-33-12-43-11-11-31-10-41 1-10 11-10 26-10 40 0 189 0 378 0 567 0 9 0 19 6 26 4 6 11 9 18 12 63 27 136 44 199 19 34-13 63-38 98-46 33-7 67 1 98 14 14 6 27 12 42 13 14 1 30-6 36-19 2-6 2-13 2-19m-71-36c-58-24-127-20-181 11-14 8-28 17-43 24-43 18-93 8-136-11-2-1-4-2-4-3-2-2-2-4-2-5 0-88 0-175 0-262 0-5 3-11 7-9 55 23 121 21 174-6 24-11 45-28 70-35 38-10 78 1 114 15 4 2 7 3 9 6 1 3 1 5 1 8 0 85 0 169 0 254 0 3 0 6-1 9-2 3-5 5-8 4z m-773-518c42 0 85 0 127 0 7 55 13 110 19 165 3 20 11 47 32 48 13 0 24-10 28-22 4-12 3-26 1-38-6-61-12-121-18-181-1-9-2-19-9-26-7-7-19-8-30-8-56 0-112 0-169 0-10 0-22 0-30 7-9 7-11 21-12 33-9 87-18 175-27 262 0 7-9 11-16 11-7 0-14-3-21-2-21 2-28 30-29 52-4 74-6 153 31 218 35 59 101 96 168 107-77 10-141 86-136 164 4 78 77 146 155 146 78 0 150-68 155-146 5-78-58-154-136-164 61-9 118-41 156-89 9-11 16-23 18-36 2-14-5-29-18-34-11-3-23 1-32 9-8 7-14 17-21 27-33 41-87 65-140 59-52-6-101-42-122-90-19-42-19-90-17-136 1-7 1-14 4-19 4-6 12-10 17-6 11 7 26 0 33-10 8-10 9-23 11-36 9-88 18-177 28-265m-7 719c26-30 73-40 110-24 36 17 59 58 54 98-5 38-35 70-72 79-37 8-78-8-99-39-23-34-20-83 7-114z" horiz-adv-x="1000" />

<glyph glyph-name="savings" unicode="&#xe832;" d="M618-17c15-19-1-48 9-70 21 1 42 2 62 2-7 57-12 123 30 161 62 59 97 146 92 231-5 85-50 167-119 218-10 7-21 14-28 24-8 9-11 23-5 34 6 11 20 15 33 13 12-2 23-9 33-17 80-60 134-153 147-253 29 7 54 32 61 61 4 20 4 45 22 54 14 8 33-2 40-17 7-14 6-32 1-48-13-46-48-86-93-105-14-6-32-13-33-28-10-78-47-152-103-207-43-41 7-128-38-167-13-11-31-15-49-17-27-3-55-4-79 7-25 11-44 38-39 64-61-12-125-12-187 0 5-25-13-51-36-62-23-12-50-12-76-11-20 2-41 5-56 19-16 15-20 39-19 60 0 22 4 43 0 65-7 39-37 70-67 97-15 15-38 12-59 10-20-2-45-1-56 16-6 9-6 21-6 32 0 72 0 145 0 217 0 13 1 28 9 37 18 20 51 4 76 10 27 67 72 125 129 168 17 13 43 23 58 8 10-10 8-29 0-41-8-12-21-20-33-29-39-29-70-69-87-114-8-21-16-45-37-52-17-6-36 2-53-5 0-61 0-121 0-182 26-10 57 6 81-7 8-4 15-11 21-19 21-24 41-48 62-72 8-9 17-19 21-31 3-10 3-20 3-30 1-31 1-62 1-93 20 0 40 0 60 0 8 24-7 56 12 73 14 13 37 7 55 2 58-17 120-17 177-1 22 6 49 12 63-5z m-54 534c-7 3-14 6-22 8-64 20-137 13-196-19-10 1-20 6-27 15-6 8-8 20-4 29 6 13 20 19 33 23 3 1 6 3 8 5 2 2 3 6 1 9-42 43-55 112-32 168 24 56 82 95 143 95 61 0 119-38 143-94 24-56 12-125-30-169-3-3-1-9 2-11 3-3 8-4 12-5 13-4 26-14 28-27 4-18-12-35-30-37-9 3-19 7-29 10m-7 210c-6 14-15 28-27 38-27 24-68 30-101 15-33-16-55-51-54-87 0-37 24-71 57-85 34-14 75-6 101 19 26 25 36 66 24 100z" horiz-adv-x="1000" />

<glyph glyph-name="sightseeing" unicode="&#xe833;" d="M840 120c-12 2-22 10-32 17-48 32-116 33-164 1 12-20 23-41 33-64 3-7 6-14 6-21 0-20-23-35-41-27-15 6-22 22-28 37-35 74-100 133-177 160-77 27-164 22-237-14-14-7-29-14-43-11-18 4-28 27-19 43 5 9 15 15 24 20 68 35 146 48 222 38 75-10 147-44 203-96 8-7 18-15 27-10 72 44 171 39 239-12 7-4 14-10 17-17 10-20-9-46-30-44z m133 704c25-25 27-65 27-100 0-249 0-498 0-747 0-36-2-77-28-102-24-24-62-25-97-25-249 0-499 0-748 0-36 0-76 2-101 27-24 25-26 64-26 99 0 249 0 499 0 748 0 35 2 74 26 99 25 25 65 27 100 27 249 0 499 0 748 0 35 0 74-1 99-26m-905-898c9-13 28-14 43-14 259 0 517 0 776 0 16 0 34 1 44 13 7 9 7 22 7 34 0 260 0 521 0 782 0 15-1 33-14 41-7 5-17 5-26 5-264 0-529 0-794 0-11 0-23 0-31-7-10-9-10-23-10-36 0-263 0-526 0-790 0-10 0-20 5-28z m652 459c-12-2-23-3-34-3-11 0-22 1-32 3-60 14-109 65-120 125-11 60 18 125 69 159 52 33 123 31 173-3 50-35 77-102 64-161-13-59-62-107-120-120m-5 63c22 7 41 21 52 41 12 19 17 43 13 65-7 37-38 69-76 76-37 7-77-12-97-44-20-32-17-76 6-106 24-30 66-43 102-32z" horiz-adv-x="1000" />

<glyph glyph-name="twitter" unicode="&#xe834;" d="M94 572c-26 63-33 133-20 200 3 14 8 30 21 35 18 8 36-8 50-22 43-48 90-94 146-126 56-33 122-51 185-40-5 80 39 162 109 202 69 41 161 38 229-6 15-10 36-6 53 1 17 8 33 18 52 20 18 2 40-9 41-27 1-9-2-17-6-25-9-20-19-41-28-62 20-9 40-18 60-28 17-8 18-34 6-49-11-16-30-23-46-33-16-10-33-25-33-45 0-114-39-228-109-319-70-91-170-159-280-189-160-44-333-11-487 52-18 8-39 20-37 39 1 13 12 22 23 26 12 4 24 4 36 4 52 1 104 12 151 32-40 12-77 32-108 60-17 16-34 36-35 59-1 24 20 49 43 44-53 34-92 89-107 150-4 14-5 31 4 42 20 23 57-1 87 5m102-63c-10-15-31-14-48-11-25 3-49 7-73 10 17-45 58-81 105-91 14-3 28-4 41-10 12-6 23-20 21-33-3-16-21-24-36-30-21-8-41-15-62-23 36-40 94-52 148-55 21-1 47-6 53-26 5-20-14-37-32-47-43-26-90-47-139-60 150-55 325-42 460 43 134 85 223 243 216 402-2 34 23 68 57 77-10 15-33 16-46 30-15 18-4 45 7 66-25-15-59-12-82 6-50 42-128 41-180 3-53-37-78-107-69-171 3-18-20-30-38-33-68-11-138 2-200 30-62 28-117 70-166 118-6-48 8-98 40-135 8-8 16-17 22-27 6-10 7-23 1-33z" horiz-adv-x="1000" />

<glyph glyph-name="instagram" unicode="&#xe835;" d="M796 837c90-24 165-99 190-189 13-47 13-95 13-144 1-94 1-189 1-284 0-66 0-133-23-195-33-84-110-150-199-167-34-7-69-7-103-7-109-1-218-1-326-1-50 0-101 0-149 13-97 27-175 113-194 212-6 33-6 66-6 100 0 117 0 235 0 353 0 32 0 65 6 97 18 98 96 183 193 211 50 14 103 14 155 14 100 0 200 0 300 0 47 0 96 0 142-13m-728-755c17-76 78-140 152-160 37-10 75-10 113-10 114 0 227 0 341 0 32 0 64 0 94 7 78 18 144 83 161 161 8 31 8 64 8 96 0 116 0 232 0 347 0 34 0 67-8 100-17 71-74 131-144 152-40 12-83 12-125 12-115 0-230 0-346 0-26 0-52 0-78-5-76-15-142-75-163-149-12-38-12-79-12-119 1-114 1-228 1-342 0-30 0-61 6-90z m764 569c8-23-3-50-24-61-21-12-50-5-64 14-15 19-14 48 3 66 4 4 9 8 14 10 8 5 18 6 27 6 20-2 38-16 44-35z m-243-80c54-22 100-65 125-118 25-52 30-114 14-170-27-92-114-163-209-171-96-8-193 48-235 134-41 86-24 197 41 267 66 70 175 94 264 58m-17-60c-14 6-28 11-43 13-36 6-74 1-107-15-33-16-61-43-79-75-32-59-26-137 14-190 41-54 113-81 179-67 66 14 121 68 136 134 9 39 3 82-15 118-18 36-48 65-85 82z" horiz-adv-x="1000" />

<glyph glyph-name="diversion_sign" unicode="&#xe836;" d="M1 362c4 23 20 40 36 56 130 130 259 259 389 389 21 21 46 44 76 43 28-1 50-22 69-41 129-129 258-257 386-386 22-21 44-46 43-76-1-27-21-49-40-68-133-132-266-265-398-397-12-12-24-24-40-29-37-12-74 18-102 45-124 125-249 250-374 375-24 24-51 55-45 89m62-11c-1-7 4-13 9-18 138-137 276-274 413-411 4-4 9-8 14-8 6 0 11 4 16 9 138 138 276 276 414 414 3 3 7 7 8 12 0 7-5 12-9 17-138 137-275 274-412 412-5 5-11 10-18 9-5 0-10-4-13-8-138-138-276-276-414-414-4-4-8-8-8-14z m435 110c-8-7-16-14-26-16-19-3-38 18-33 37 3 10 10 18 18 25 27 26 54 53 81 79 5 5 10 11 17 12 15 4 28-7 39-18 24-24 49-48 73-73 8-7 16-16 18-27 4-16-10-34-26-35-12 0-23 6-32 14-9 8-16 18-25 26-1 0-2 1-3 2-5 0-7-6-7-11 0-59 0-119 0-178 0-12 0-25-8-33-8-7-21-8-32-8-24 1-49 1-74 1-7 0-9-10-9-17 1-39 1-78 1-117 0-17-2-37-15-48-8-7-21-8-31-3-10 4-17 15-17 26 0 59 0 119 0 178 0 10 0 21 6 29 9 12 26 14 42 14 23 0 47 0 71 0 3 0 5 5 5 9-1 49-1 99-1 149 0 4 0 9-3 12-9-11-19-20-29-29z" horiz-adv-x="1000" />

<glyph glyph-name="search_doc" unicode="&#xe837;" d="M65 845c16 5 33 5 49 5 136 0 272 0 408 0 15 0 30 0 44-5 21-6 37-22 53-38 28-27 56-55 83-83 17-16 35-34 43-56 6-17 6-36 6-54 0-21 0-41 0-61 0-14-1-31-12-40-15-12-39-2-48 14-9 17-7 37-4 56 3 18 6 38 1 56-6 16-18 29-31 42-28 29-57 58-86 87-10 9-21 20-35 20-145 0-291 0-436 0-8 0-17 0-24-5-12-8-14-25-14-40 0-220 0-441 0-661 0-12 1-24 7-32 10-13 29-14 45-14 57 0 115 1 172 1 13 1 26 1 37-4 12-5 22-16 21-28 0-12-10-22-21-27-11-4-23-4-35-4-56 0-111 0-166 0-25 1-52 1-74 12-16 8-29 21-37 37-11 23-11 49-11 74 0 212 0 424 0 635 0 19 0 39 6 57 9 26 32 48 59 56z m898-994c-11 3-19 10-26 18-42 42-85 85-127 127-79-61-197-68-283-16-85 53-133 160-115 259 18 99 102 182 200 200 99 18 207-30 259-116 52-86 45-204-17-283 43-43 86-87 129-130 6-5 12-11 15-19 4-10 2-23-5-31-8-8-20-12-30-9m-408 185c9-6 18-11 28-15 12-5 26-9 39-12 38-7 79-2 114 14 35 16 65 44 84 78 36 63 31 147-13 206-44 58-124 86-194 69-71-17-129-79-141-151-12-72 22-149 83-189z" horiz-adv-x="1000" />

<glyph glyph-name="cross" unicode="&#xe838;" d="M8 843c17 17 44 0 60-17 144-144 288-288 431-432 145 145 290 289 435 433 15 15 40 32 57 18 10-8 11-23 6-35-4-11-13-20-22-29-144-144-287-287-431-431 144-144 288-288 433-433 16-16 32-42 17-58-8-10-22-11-34-6-11 4-20 13-29 22-143 144-287 287-431 431-143-144-287-287-430-431-9-9-18-18-30-22-12-5-26-3-34 6-15 17 2 42 18 58 144 144 288 289 432 433-144 144-288 288-431 431-17 17-35 46-17 62z" horiz-adv-x="1000" />

<glyph glyph-name="free" unicode="&#xe839;" d="M70 28c4 14 20 24 34 21 15-3 25-16 35-27 86-107 222-172 359-172 138 0 274 64 361 170 9 11 19 24 34 27 20 5 41-16 38-36-2-9-8-17-14-25-97-124-254-201-412-202-159-2-316 72-417 194-12 14-23 32-18 50z m853 607c5-18-11-39-30-39-18 0-32 16-44 30-88 99-219 158-350 158-132 0-263-60-350-159-9-11-19-22-33-26-20-4-41 16-38 36 2 11 9 20 16 28 100 118 254 188 410 187 155-1 308-74 406-194 6-6 11-13 13-21z m56-321c11-4 20-15 21-27 1-12-5-25-16-31-10-6-22-6-33-6-24 0-48 0-71 0-5 0-10-1-12-5-1-1-1-3-1-5 0-9-1-19 1-28 2-10 8-19 16-24 9-5 20-4 31-4 15 1 30 1 46-1 7 0 15-1 21-4 11-5 18-17 18-28 0-12-6-23-17-29-8-4-18-5-28-5-14 0-28 0-41 0-12 0-24 0-35 3-33 7-61 32-72 63-7 21-7 43-7 65 0 45 0 90 0 135 0 26 0 54 11 78 13 27 39 47 68 53 11 2 23 2 34 3 14 0 28 0 41 0 9 0 18 0 25-3 11-4 19-14 20-26 2-11-3-23-12-30-11-8-27-9-41-9-12 0-25 0-37 1-10 0-21-1-29-7-12-8-13-25-13-39 0-25 0-51 0-76 0-4 0-7 2-9 2-3 7-3 10-3 26 0 52 0 78 0 7 0 15 0 22-2z m-580-170c-20 33-40 66-60 99-4 0-6-6-6-10 1-23 1-45 1-68 0-10 0-20-5-29-6-14-22-21-36-18-15 4-25 18-25 32 1 107 1 213 0 320 0 16 1 35 15 43 6 2 11 3 17 3 9 1 19 1 28 1 18 1 36 0 53-4 46-13 82-57 85-105 4-48-26-96-71-115-5-2-3-10 0-15 21-34 42-69 62-103 4-5 7-11 8-17 4-13-2-28-13-35-11-8-27-7-38 1-6 5-11 12-15 20m-64 305c-1-1-1-3-1-5 0-28 0-55 0-83 0-5 1-11 5-11 16-3 33 3 45 14 12 11 18 28 16 44-3 16-13 30-28 37-10 4-21 5-32 5-2 0-4 0-5-1z m-261-12c-8-10-8-22-8-34 0-25 0-50 1-75 0-2 0-4 0-6 3-6 10-6 16-6 13 0 26 0 39 0 8 0 17 0 25-3 9-4 16-12 18-22 3-10 0-20-6-28-13-14-34-14-53-14-9 1-19 1-28 1-2 0-5 0-7-1-4-2-5-8-5-13 0-24 1-47 1-70 0-11 0-22-5-31-5-10-16-17-28-17-11-1-23 6-28 16-6 9-6 21-6 32 0 78 0 156 0 235 0 20 1 41 10 60 3 6 7 11 12 17 13 15 29 29 49 35 11 3 23 3 34 4 17 0 35 0 52 0 7 0 15 0 22-3 11-4 20-15 21-27 1-12-6-25-16-31-6-3-13-5-19-6-11-1-22-2-33-1-10 0-21 2-31 1-10-1-21-5-27-13z m527-198c0-9-1-19 1-29 2-9 8-18 16-23 7-3 16-3 24-3 12 0 25 0 37 0 14 0 30 0 41-8 9-8 14-20 12-31-2-12-10-22-21-26-6-2-13-2-19-2-16 0-33 0-49 0-12 0-24 0-36 3-14 4-27 12-38 22-15 13-27 29-31 48-2 8-2 17-2 26 0 65 0 129 0 194 0 14 0 28 4 42 3 7 6 14 11 21 12 18 30 31 50 38 18 6 38 6 57 6 12 0 24 0 36 0 5-1 11-1 17-3 11-3 20-14 22-26 1-13-5-25-16-32-7-4-16-5-25-6-12-1-24-1-36 0-9 0-18 1-28-1-9-1-18-6-22-14-4-7-4-15-4-23 0-28 0-56-1-83 0-6 2-13 8-13 26 0 53 0 79 0 8 0 17 0 24-3 12-4 20-16 21-28 1-12-6-24-17-30-9-6-21-6-32-5-23 0-46 0-68 0-5 0-11 0-13-5-1-1-1-4-2-6z" horiz-adv-x="1000" />

<glyph glyph-name="heart_balloon" unicode="&#xe83a;" d="M672 735c35-4 67-24 86-53 8-13 27-5 41 1 53 26 123 14 164-29 40-44 49-114 20-166-20-35-53-60-86-83-32-24-64-47-96-70-20-14-40-28-63-34-32-8-57-31-79-55-82-91-127-212-125-334 0-13 0-27-4-39-4-13-15-24-28-25-10 0-19 5-27 10-75 47-139 112-178 192-38 79-50 173-23 257 2 7-4 14-9 20-60 61-121 123-181 185-25 25-50 51-66 82-40 78-11 184 63 230 75 46 183 25 235-45 35 47 95 75 154 71 59-5 115-41 142-94 11-19 38-18 60-21m53-374c9 2 17 8 25 14 45 33 89 66 133 98 16 12 32 24 42 40 20 30 15 74-10 99-26 26-69 31-100 11-20-13-40-36-63-28-16 5-23 23-31 37-16 24-42 42-71 46-7 1-19-2-18-10 2-14 0-28-3-42-11-37-38-66-64-94-56-59-112-118-168-177-14-14-28-29-47-34-9-3-14-14-16-23-18-66-15-137 10-201 24-63 69-119 126-155 10 143 71 286 180 380-19 28-37 56-55 84-8 12-17 27-12 41 6 16 27 21 42 15 16-6 26-21 33-36 8-15 13-31 24-44 10-13 26-24 43-21m-404 346c-19-3-35 13-48 28-13 14-26 27-42 37-42 25-102 18-137-17-36-35-43-95-18-137 9-16 21-28 33-41 59-61 118-123 177-184 6-7 14-14 23-16 16-4 31 9 42 21 58 60 115 120 173 181 11 12 23 24 31 38 26 42 19 103-17 138-35 35-95 42-138 16-19-12-35-29-50-45-8-9-17-17-29-19z" horiz-adv-x="1000" />

<glyph glyph-name="at" unicode="&#xe83b;" d="M750 319c-1-32-5-66 6-96 14-34 49-59 86-59 37 0 73 24 87 59 7 18 8 39 9 59 1 53 0 106-11 158-30 146-139 273-279 323-139 51-305 24-421-69-116-92-180-247-162-394 18-148 117-283 252-345 135-62 302-49 425 33 20 14 48 27 63 9 15-19-5-45-25-58-143-97-338-112-494-38-157 74-269 234-284 406-16 173 66 351 207 451 140 101 335 121 493 50 158-70 274-227 293-399 4-35 5-70 5-105 0-29 0-59-7-87-18-62-78-110-142-114-65-3-130 38-154 98-66-86-192-121-293-79-100 41-166 154-152 262 14 108 107 201 214 215 108 14 221-51 263-151 17-41 23-86 21-129m-299 214c-52-13-97-51-121-100-23-48-24-107-2-157 17-39 49-72 88-91 38-20 84-25 126-15 64 15 118 66 137 129 19 64 1 137-45 184-47 47-119 67-183 50z" horiz-adv-x="1000" />

<glyph glyph-name="ok" unicode="&#xe83c;" d="M0 339q0-35 24-60l246-239q24-25 60-25 36 0 60 25l505 495q25 24 25 59t-25 58q-25 25-60 25t-60-25l-445-435-185 181q-25 24-60 24t-61-24q-24-24-24-59z" horiz-adv-x="920.4" />

<glyph glyph-name="home_love" unicode="&#xe83d;" d="M438 850c31 0 58-21 81-41 111-94 222-188 333-282 9-7 19-16 22-27 4-18-11-37-29-37-13 1-24 10-34 18-115 97-229 194-343 291-8 6-16 13-25 14-15 2-28-8-39-18-111-94-222-188-333-282-15-13-34-26-52-20-15 5-23 25-17 39 4 7 10 13 16 18 113 95 225 190 337 285 24 21 51 42 83 42z m-78-820c-9-5-21-5-31-5-29 0-58 0-86 0-17 0-34 0-50 4-33 9-59 38-66 71-2 12-2 24-2 36 0 96 0 192 0 287 0 6 0 11 1 16 4 12 14 21 26 22 12 2 25-5 31-16 4-8 4-19 4-29 0-94 0-188 0-283 0-13 1-29 11-38 9-8 22-8 34-8 32 0 64 0 96 0 11 0 23 0 32-6 9-5 14-15 14-25 0-11-5-21-14-26z m330-114c-48 50-96 100-144 150-17 17-34 35-50 52-14 15-27 31-37 48-26 45-27 104-3 150 24 46 73 78 125 82 52 5 105-18 138-58 32 39 85 62 136 58 52-4 100-35 126-79 25-45 26-103 1-148-13-25-32-45-52-65-59-62-119-124-178-186-10-11-23-22-37-20-10 2-18 9-25 16m60 368c-8-9-17-17-29-18-15-1-28 11-38 23-13 14-28 29-45 38-34 17-79 11-107-15-28-26-38-70-23-105 9-21 25-39 42-55 54-57 109-114 164-171 2-2 4-3 6-3 1 0 2 1 4 2 56 59 112 117 168 176 14 14 28 28 36 46 18 36 9 83-20 110-29 27-77 33-111 13-18-11-32-26-47-41z m5 382c-5 10-5 21-5 31 0 22 0 44 1 65 0 6-2 13-7 13-24 0-48 0-72 0-11 0-21 0-31 5-9 5-15 17-15 28 1 11 8 21 18 26 8 3 16 3 25 3 33 0 67 0 101 0 8 0 17 0 25-3 7-4 13-10 15-17 3-7 3-14 3-20 0-36 0-72 0-108 0-5 0-10-2-16-3-11-14-21-26-22-12-2-24 5-30 15z" horiz-adv-x="1000" />

<glyph glyph-name="luggage" unicode="&#xe83e;" d="M631 662c63 4 133 6 182-34 34-29 50-73 55-117 2-15 3-31-4-44-7-14-24-24-38-18-12 4-18 17-20 30-2 12 0 25 0 37-2 30-20 58-46 73-29 16-64 14-96 13-7-1-15-3-15-9 0-30 1-61 1-91 1-12 1-24-4-35-4-11-14-21-26-21-12 0-23 9-27 21-5 11-5 23-5 35 1 33 1 66 1 99-104 2-208 2-312-1 0-179 0-358 0-537 0-9 3-21 12-21 17 1 34 1 52 2 14 1 30 1 43-6 13-6 23-22 18-36-7-16-28-19-46-19-62-1-124-3-186 0-26 1-51 3-75 12-45 17-79 57-90 104-4 21-4 43-4 64-1 101-1 202-1 302 0 33 0 67 11 98 14 39 45 73 85 88 57 23 121 8 182 13-3 34-6 70 2 104 8 33 31 66 63 77 16 5 34 5 50 5 24 0 48 0 71 0 30 0 62-1 87-18 21-16 33-41 36-67 4-26 1-52-2-78-2-10 6-19 16-23 9-4 20-3 30-2m-564-121c-5-15-5-31-5-46 0-116 0-232 0-348 0-13 0-26 3-39 8-28 32-49 60-59 27-9 57-9 86-4 1 0 2 0 3 1 2 1 2 4 2 6 0 183 0 365 0 548-29 4-59 6-87-3-27-8-53-28-62-56m462 202c-1 7-2 13-4 20-2 8-6 16-12 20-7 5-15 5-23 5-37 0-74 0-111 0-6 0-12 0-18-2-10-4-16-13-19-23-3-9-3-20-3-30 0-20 0-41 0-61 0-2 0-4 1-6 2-2 6-3 9-3 56 0 112 0 167 0 4 0 7 0 10 2 3 3 3 7 3 11 0 16 0 31 0 46 0 7 0 14 0 21z m68-857c-51 26-94 67-121 118-27 50-38 109-31 166 7 63 37 122 83 166 45 44 106 72 169 78 85 7 173-27 231-91 58-63 83-155 67-239-15-84-73-160-149-198-77-38-172-38-249 0m99 461c12-23 33-41 44-65 15-31 11-71-10-98-19-23-46-36-69-55-3-2-6-5-8-8-4-7-3-14-3-21-1-26-14-50-33-66-20-16-47-23-72-19-3 1-5-3-5-6 0-3 2-6 4-8 29-37 70-63 115-75 45-12 94-8 137 10 3 1 6 2 8 5 4 4 2 11 1 17-6 20-13 40-17 61-3 20-2 42 7 61 10 23 32 40 55 52 23 11 47 20 69 34 3 2 6 4 7 8 1 2 0 5 0 7-11 51-40 96-81 128-41 31-93 47-144 44-3 0-6 0-6-3 0-1 0-2 1-3m-105-203c5 14 18 23 29 31 15 12 31 23 46 34 9 7 19 14 21 25 4 14-5 27-13 38-14 19-27 37-41 55-2 2-3 5-6 6-4 1-8-1-12-3-51-26-91-73-109-128-12-39-13-82-2-122 1-4 5-4 9-4 15 0 29 0 43 0 6 0 12 0 17 2 11 5 15 19 16 31 0 11-1 24 2 35m332-47c-1 1-3 0-4-1-14-7-29-14-43-21-12-6-25-13-28-25-3-8 0-17 2-25 4-15 8-30 12-45 32 29 54 68 63 110 1 3 1 7-2 7z" horiz-adv-x="1000" />

<glyph glyph-name="man" unicode="&#xe83f;" d="M928-226c-7 142-90 278-214 348-7-69-51-134-113-167-62-32-140-32-201 0-62 33-106 97-114 167-121-68-204-200-213-339-1-16-1-31-8-45-6-15-20-26-36-24-24 4-30 35-29 59 8 171 110 334 260 416 150 82 343 80 490-6 148-85 246-251 250-422 0-8 0-17-3-25-9-21-41-27-56-10-12 12-12 31-13 48m-567 382c-4-4-5-11-4-17 1-49 31-97 74-121 43-23 99-23 141 2 43 25 71 73 71 122 1 4 0 7-1 10-3 5-8 7-13 8-84 27-176 26-260-1-3 0-5-1-8-3z m-138 492c30 97 115 175 214 196 94 20 198-11 265-81 67-70 95-175 72-268-25-99-106-181-204-207-98-26-209 5-279 78-71 73-97 185-68 282m476-154c2 5 4 11 6 16 3 8 6 17 9 25 1 4 2 9 2 13-1 4-6 8-10 7-138-39-294-7-406 83-2 2-5-2-6-5-21-69-3-149 46-203 49-55 126-81 198-68 71 13 135 65 161 132m6 138c2 4 0 9-2 13-5 11-10 23-16 34-34 59-97 101-165 108-68 7-139-21-183-73-4-4-7-10-3-13 50-44 111-73 176-85 24-5 48-7 72-7 25 0 49 2 73 7 13 2 25 6 37 9 4 1 9 3 11 7z" horiz-adv-x="1000" />

<glyph glyph-name="romance" unicode="&#xe840;" d="M479 403c-28-5-54 18-74 38-48 50-97 100-145 150-15 15-29 30-40 47-32 51-27 123 13 167 40 45 111 58 163 29 25-14 44-35 63-56 4-5 12-10 16-5 20 24 42 48 69 63 50 26 116 15 156-25 39-40 50-105 26-156-14-29-37-53-59-76-48-49-95-97-143-146-13-13-27-27-45-30m-124 382c-23 9-50 2-69-14-26-23-33-66-15-97 6-11 15-20 24-30 56-58 113-116 169-174 1-1 2-2 4-3 2 0 5 2 6 4 57 58 114 117 171 175 7 8 15 16 21 25 19 31 13 76-15 100-19 17-49 23-72 13-14-6-24-16-34-27-15-14-29-29-43-44-10-10-21-22-36-20-10 0-19 9-27 16-13 14-26 27-39 41-13 14-27 29-45 35z m212-710c-12-5-26-8-40-4-13 3-25 14-27 27-2 14 8 29 22 30 33 1 57 34 65 67 7 32 5 66 12 98 16 68 82 119 151 119 70 0 135-51 152-118 7-33 5-66 13-99 7-32 30-65 63-67 15-1 26-20 21-34-5-15-20-24-35-25-16-1-31 5-44 13-24 15-44 38-55 65-29-24-63-41-99-49 52-3 103-26 140-64 37-38 60-89 62-142 1-10 0-20-4-28-9-15-34-18-46-5-10 10-10 27-12 41-7 50-39 97-84 120-45 23-101 23-146-1-44-24-76-71-81-121-2-14-2-28-11-39-8-10-25-12-36-5-15 10-17 31-15 49 5 51 29 100 66 135 37 36 87 57 138 60-33 6-63 20-89 41-5 5-14 8-16 2-11-30-35-55-65-66m95 212c-3-7-5-15-5-23-1-14 0-28 5-40 2-5 4-10 7-15 21-37 70-55 110-42 41 13 69 56 65 98-4 43-40 80-82 85-43 5-86-22-100-63z m-288-386c-7 50-39 95-83 119-45 23-101 23-145-1-45-23-77-69-83-119-1-14-2-30-11-40-12-15-40-11-48 6-4 7-4 16-4 25 3 53 25 105 63 143 38 38 89 61 143 64-33 6-64 19-89 40-50 43-68 119-42 180 26 60 93 100 158 94 66-7 124-59 138-123 14-64-19-136-76-168-19-11-40-18-62-23 55-3 107-28 145-67 37-40 59-94 59-148 0-11-6-23-15-29-10-6-23-6-32 1-14 10-14 29-16 46m-181 265c13-4 28-5 42-2 41 7 76 45 78 87 2 43-28 84-68 96-24 7-50 4-71-8-33-18-53-56-49-93 4-36 32-69 68-80z" horiz-adv-x="1000" />

<glyph glyph-name="reading" unicode="&#xe841;" d="M783 477c2 8-10 11-18 10-82-9-172-4-236 48-9 7-22-1-32-8-65-48-153-47-234-39-8 0-9-12-7-20 4-17 8-33 13-49 4-16 8-33 5-49-4-16-17-32-33-32-12 0-24 9-30 19-7 10-9 23-12 35-8 37-17 75-25 113-4 14-7 29-9 43-8 59 6 121 37 172 32 50 82 89 138 107 22 8 45 12 67 15 75 11 151 11 226 0 23-4 47-8 69-16 101-35 174-141 172-248-1-33-9-66-16-99-7-30-13-60-20-91-4-15-8-31-20-41-17-13-45-6-53 14-5 13-2 28 1 41 5 25 11 50 17 75m-292 140c7 5 14 11 22 12 10 2 20-2 28-8 8-5 15-13 22-20 28-26 66-39 104-44 38-4 77 0 115 4 7 0 17 3 18 11 3 39-6 79-28 112-21 33-54 59-91 71-9 3-18 5-27 7-84 20-172 21-256 4-13-2-25-5-37-9-71-24-123-94-126-169 0-8 0-18 7-23 4-3 10-4 15-4 34-4 67-7 101-5 34 3 68 11 96 30 13 9 25 20 37 31z m105-295c-4 9-3 19-3 28 0 4 0 9 0 13 0 7 0 15 3 22 4 11 13 20 25 22 11 3 23 0 32-8 14-14 14-36 13-56-1-7-1-14-4-21-5-13-19-22-33-22-14 0-28 9-33 22z m-189 87c5 0 10-1 14-3 4-2 7-4 10-7 8-6 12-15 14-25 1-10 1-20 0-29 0-8-1-16-3-23-6-15-24-25-41-22-16 4-29 20-28 36 0 13 0 26 0 38 0 3 0 6 1 9 2 11 12 18 22 23 3 1 7 3 11 3z m515-546c3-27-9-55-30-71-14-10-31-16-47-21-102-31-203-62-305-93-21-7-44 0-65 6-96 30-191 60-287 89-26 9-56 20-65 46-9 21-4 54-26 61-56 20-97 77-97 136 0 60 41 117 97 137 20 7 16 35 16 56-2 40 26 81 66 87 22 3 44-5 66-13 86-32 172-64 258-95 16-6 33 0 49 6 79 29 157 58 236 88 23 8 46 17 70 14 32-5 59-31 64-63 2-17-1-35-1-52-1-17 4-37 18-47 35-24 58-64 61-107 3-42-14-85-46-114-15-14-35-30-32-50m-735 300c2-3 5-4 8-5 28-10 56-29 63-58 2-8 2-17 2-25 0-37 0-74 0-111 0-9 0-19-2-28-4-23-21-44-43-53-7-3-14-5-20-9-5-4-10-11-7-18 2-7 10-10 18-13 89-27 178-54 267-81 1 0 3-1 5 0 3 1 3 5 3 8 0 112 0 224 0 337 0 2 0 5-1 8-2 4-7 6-11 8-89 32-178 65-268 98-4 2-11 3-14-2-1-1-1-3-1-5 0-15 0-31 1-46 0-2 0-4 0-5m554-97c0 15 0 30 5 44 7 18 22 33 40 41 18 8 38 11 57 12 5 0 6 6 6 11 0 13 0 26 0 39 0 4 0 9-4 10-2 0-3 0-5-1-91-33-182-66-273-100-3-1-7-2-9-5-3-4-4-9-4-14 0-110 0-220 0-330 0-6 3-13 8-12 90 27 179 55 268 82 7 2 14 4 18 10 4 6 1 16-6 17-19 1-38 4-56 12-17 8-32 21-40 39-5 14-5 30-5 45 0 33 0 67 0 100m-661-82c5-14 17-24 31-30 13-6 28-8 42-10 6-1 13-2 19-1 6 1 11 5 14 10 1 3 1 7 1 10 0 35 0 71 0 106 0 4 0 7-2 10-3 9-15 12-25 11-19 0-38-5-54-14-6-3-13-7-17-12-13-14-13-35-12-54 0-9 0-18 3-26m838-6c4 9 5 19 5 29 1 19 2 40-10 55-8 10-20 15-31 19-19 8-41 13-60 6-3-1-5-2-7-4-1-2-1-4-1-7 0-40 0-80 0-119 0-5 4-10 8-12 4-2 9-2 14-2 21 0 41 5 59 15 9 5 18 11 23 20z" horiz-adv-x="1000" />

</font>
</defs>
</svg>
